<?xml version="1.0" standalone="no"?>
<!DOCTYPE svg PUBLIC "-//W3C//DTD SVG 1.1//EN" "http://www.w3.org/Graphics/SVG/1.1/DTD/svg11.dtd" >
<svg xmlns="http://www.w3.org/2000/svg" xmlns:xlink="http://www.w3.org/1999/xlink" version="1.1">
<metadata></metadata>
<defs>
<font id="samsung_sanslight" horiz-adv-x="1142" >
<font-face units-per-em="2048" ascent="1587" descent="-461" />
<missing-glyph horiz-adv-x="526" />
<glyph unicode="&#xfb01;" horiz-adv-x="1179" d="M29 950v103h231v94q0 203 86 303t248 100q33 0 64.5 -4t70.5 -14l-20 -102q-35 10 -59.5 12t-47.5 2q-123 0 -173 -78t-50 -244v-69h620v-1053h-118v950h-502v-950h-119v950h-231zM854 1425q0 41 23.5 63.5t62.5 22.5t62.5 -22.5t23.5 -63.5t-23.5 -64.5t-62.5 -23.5 t-62.5 23.5t-23.5 64.5z" />
<glyph unicode="&#xfb02;" horiz-adv-x="1179" d="M29 950v103h231v94q0 201 95.5 302t275.5 101q115 0 250 -43l118 35v-1542h-118v1401q-66 23 -129.5 33t-114.5 10q-141 0 -199.5 -79t-58.5 -243v-69h291v-103h-291v-950h-119v950h-231z" />
<glyph unicode="&#xfb03;" horiz-adv-x="1800" />
<glyph unicode="&#xfb04;" horiz-adv-x="1792" />
<glyph unicode="&#xd;" horiz-adv-x="526" />
<glyph horiz-adv-x="0" />
<glyph horiz-adv-x="0" />
<glyph unicode=" "  horiz-adv-x="526" />
<glyph unicode="&#x09;" horiz-adv-x="526" />
<glyph unicode="&#xa0;" horiz-adv-x="526" />
<glyph unicode="!" horiz-adv-x="499" d="M158 72q0 41 24.5 66.5t67.5 25.5t67.5 -25.5t24.5 -66.5t-25 -68q-25 -25 -67 -24q-43 0 -67.5 25.5t-24.5 66.5zM190 438v1016l119 10v-1026h-119z" />
<glyph unicode="&#x22;" horiz-adv-x="669" d="M113 1430l131 12l-19 -522h-94zM426 1430l131 12l-19 -522h-94z" />
<glyph unicode="#" horiz-adv-x="1527" d="M106 389l11 103h311l94 423h-334l11 103h346l86 389h112l-86 -389h353l86 389h112l-86 -389h299l-10 -103h-311l-94 -423h333l-10 -103h-346l-86 -389h-113l86 389h-352l-86 -389h-113l87 389h-300zM541 492h352l94 423h-352z" />
<glyph unicode="$" d="M45 117l51 98q113 -63 220.5 -93t205.5 -32v586q-90 33 -169 66.5t-136 78.5t-90 103.5t-33 138.5q0 82 34 145.5t92.5 109.5t136 71.5t165.5 31.5v226l105 8v-236q98 -8 194.5 -35.5t182.5 -74.5l-50 -101q-82 41 -164.5 66.5t-162.5 34.5v-545q88 -33 163.5 -71 t133 -87t90.5 -112.5t33 -147.5q0 -80 -31 -143.5t-86.5 -109.5t-132 -73.5t-170.5 -35.5v-234l-105 -8v238q-119 4 -239.5 35.5t-237.5 101.5zM217 1069q0 -53 22.5 -93t63.5 -71t97.5 -54.5t121.5 -47.5v508q-59 -4 -113.5 -19.5t-97.5 -46.5t-68.5 -75t-25.5 -101z M627 92q131 16 214 74.5t83 175.5q0 57 -21.5 100t-60.5 78t-94.5 63.5t-120.5 53.5v-545z" />
<glyph unicode="%" horiz-adv-x="1832" d="M96 997q0 199 83 311.5t231 112.5q147 0 230 -112.5t83 -311.5q0 -198 -84 -311q-82 -113 -229 -112q-147 0 -230.5 112.5t-83.5 310.5zM209 997q0 -154 53.5 -237.5t147.5 -83.5t147 84t53 237q0 154 -53 238t-147 84t-147.5 -84t-53.5 -238zM496 0l704 1401h117 l-704 -1401h-117zM1110 403q0 199 83 311.5t231 112.5q147 0 230 -112.5t83 -311.5q0 -198 -84 -311q-82 -113 -229 -112q-147 0 -230.5 112.5t-83.5 310.5zM1223 403q0 -154 53.5 -237.5t147.5 -83.5t147 84t53 237q0 154 -53 238t-147 84t-147.5 -84t-53.5 -238z" />
<glyph unicode="&#x26;" horiz-adv-x="1441" d="M158 328q0 74 25.5 133t71.5 113.5t108.5 104.5t136.5 103q-49 51 -88 96.5t-67 88.5t-42 88t-14 96q0 66 24.5 123t68.5 100t104.5 68.5t134.5 25.5t135 -25.5t104 -68.5t66.5 -100t23.5 -119q0 -59 -20.5 -109.5t-58 -96.5t-89 -89t-112.5 -88l399 -416q47 47 89 96.5 t79 96.5l76 -70q-76 -100 -168 -198l209 -218l-80 -77l-211 217q-113 -100 -237 -161.5t-261 -61.5q-84 0 -157.5 23.5t-129 68.5t-88 109.5t-32.5 146.5zM281 330q0 -59 23.5 -104.5t63.5 -76t91 -46t108 -15.5q115 0 221.5 55.5t198.5 135.5l-412 426q-66 -47 -119 -90.5 t-92.5 -88.5t-61 -93t-21.5 -103zM412 1155q0 -82 51 -152.5t131 -154.5q115 82 174 150.5t59 154.5q0 92 -58 149.5t-148 57.5t-149.5 -58.5t-59.5 -146.5z" />
<glyph unicode="'" horiz-adv-x="356" d="M113 1430l131 12l-19 -522h-94z" />
<glyph unicode="(" horiz-adv-x="612" d="M178 522q0 260 68.5 518t197.5 492l101 -37q-119 -217 -179.5 -468t-60.5 -505t60.5 -504.5t179.5 -468.5l-101 -36q-129 233 -197.5 491t-68.5 518z" />
<glyph unicode=")" horiz-adv-x="612" d="M68 -451q119 217 179 468t60 505t-60.5 505t-178.5 468l100 37q129 -233 197.5 -491.5t68.5 -518.5t-68.5 -518t-197.5 -491z" />
<glyph unicode="*" horiz-adv-x="1171" d="M131 1157l27 84l370 -111l15 390h86l14 -390l371 111l26 -84l-358 -135l238 -326l-68 -51l-266 311l-267 -311l-67 51l237 326z" />
<glyph unicode="+" d="M156 647v107h362v366h109v-366h360v-107h-360v-366h-109v366h-362z" />
<glyph unicode="," horiz-adv-x="454" d="M45 -252q57 106 89 213t40 248l137 -12q-6 -59 -19 -123t-36 -128.5t-53.5 -127t-69.5 -115.5z" />
<glyph unicode="-" horiz-adv-x="845" d="M113 473v107h620v-107h-620z" />
<glyph unicode="." horiz-adv-x="454" d="M135 72q0 41 24.5 66.5t67.5 25.5t67.5 -25.5t24.5 -66.5q1 -41 -24 -68q-25 -25 -68 -24q-43 0 -67.5 25.5t-24.5 66.5z" />
<glyph unicode="/" horiz-adv-x="874" d="M6 -207l739 1835h123l-739 -1835h-123z" />
<glyph unicode="0" d="M88 700q0 143 26.5 273.5t85 230t149.5 158.5t222 59t222.5 -59t149.5 -158.5t85 -229.5t27 -274q0 -143 -27 -273t-86 -230q-57 -98 -148.5 -157.5t-222.5 -59.5t-222 59t-149.5 158.5t-85 229.5t-26.5 273zM213 700q0 -121 18.5 -231.5t60.5 -194.5t110.5 -133 t168.5 -49t168 49q70 49 112 133t60.5 195t18.5 231q0 121 -18.5 231.5t-60.5 194.5t-110.5 133.5t-169.5 49.5q-100 0 -168.5 -49.5t-110.5 -133.5t-60.5 -194.5t-18.5 -231.5z" />
<glyph unicode="1" d="M201 1227l442 174h133v-1401h-123v1282l-415 -160z" />
<glyph unicode="2" d="M123 42v34q0 115 36 202t95 156.5t135 124.5t154 109q61 41 115.5 79.5t95.5 81.5t64.5 92.5t23.5 112.5q0 61 -23.5 111.5t-64.5 87.5t-97.5 56.5t-121.5 19.5q-92 0 -178.5 -36t-163.5 -102l-62 89q88 80 193.5 120.5t214.5 40.5q88 0 165.5 -26.5t136 -77.5t92.5 -123 t34 -160q0 -84 -29 -147.5t-75 -115.5t-107.5 -96t-124.5 -87q-72 -49 -138.5 -97.5t-118.5 -103.5t-86 -122.5t-40 -153.5h706v-111h-827q-4 25 -4 42z" />
<glyph unicode="3" d="M72 141l61 88q76 -66 176.5 -101.5t204.5 -35.5q74 0 138.5 18.5t111.5 55.5t74.5 90t27.5 121t-26.5 122t-73.5 93t-114.5 60.5t-147.5 21.5h-121v108h94q154 0 240 76t86 195q0 59 -22.5 107t-60.5 81t-90 50.5t-112 17.5q-88 0 -175 -36t-165 -102l-61 89 q86 78 190.5 119.5t214.5 41.5q92 0 167 -28.5t128 -77.5t82 -115.5t29 -142.5q0 -66 -21.5 -119t-56.5 -93t-78 -67.5t-88 -42.5q55 -14 110.5 -43.5t98.5 -75t70.5 -106.5t27.5 -139q0 -86 -33.5 -158t-95 -124t-149.5 -80.5t-199 -28.5q-121 0 -234.5 38.5t-207.5 122.5z " />
<glyph unicode="4" d="M70 416l673 985h136v-957h168v-108h-168v-336h-119v336h-682zM215 444h545v799z" />
<glyph unicode="5" d="M121 139l59 90q74 -63 164 -100t195 -37q74 0 137 20.5t109 60.5t73 100.5t27 142.5q0 86 -29 147.5t-76 101.5t-107.5 59t-125.5 19q-72 0 -147.5 -21.5t-145.5 -62.5l-61 48l26 694h703v-111h-588l-19 -504q57 31 123 48.5t135 17.5q86 0 165 -27.5t139.5 -83 t96.5 -136.5t36 -187q0 -102 -34 -183t-96.5 -138.5t-148.5 -87t-190 -29.5q-238 0 -420 159z" />
<glyph unicode="6" d="M117 680q0 131 25.5 264t85 238.5t156.5 172t241 66.5q164 0 321 -94l-45 -100q-139 82 -272 82q-104 0 -177 -49.5t-119 -133.5t-67.5 -197.5t-23.5 -244.5q61 68 156.5 123t228.5 55q94 0 169.5 -32.5t129 -91t82 -138.5t28.5 -174q0 -100 -32.5 -183t-90 -141.5 t-138.5 -90t-175 -31.5q-125 0 -216 54t-150.5 148t-88 222t-28.5 276zM246 567q18 -219 108 -347t252 -128q68 0 123 25q57 25 97 69.5t62.5 105t22.5 134.5q0 143 -80.5 233.5t-228.5 90.5q-107 -1 -199 -50t-157 -133z" />
<glyph unicode="7" d="M127 1290v111h866l6 -84q-92 -154 -177 -308.5t-150.5 -317.5t-104.5 -335t-39 -356h-120q0 188 39.5 363.5t102 336t142.5 308t160 282.5h-725z" />
<glyph unicode="8" d="M109 371q0 70 21.5 127t58 103t85.5 79q51 35 109 55q-47 18 -88 49t-74 72t-51 92t-18 113q0 70 27.5 135.5t80.5 115.5t131 79.5t180 29.5t180 -29.5t131.5 -79.5t81 -116t27.5 -135q0 -61 -18.5 -112.5t-51 -92.5t-75.5 -72q-41 -31 -86 -49q57 -20 107.5 -54t87 -80 t58 -103.5t21.5 -126.5q0 -88 -34.5 -161t-96 -124t-146.5 -78.5t-186 -27.5q-102 0 -187 27.5t-146.5 78.5t-95 124t-33.5 161zM231 377q0 -129 92.5 -208t247.5 -79q156 0 248 78q92 80 92 209q0 63 -23.5 117.5t-66.5 95.5t-106.5 64.5t-143.5 23.5t-143 -23.5 t-106 -64.5t-67 -95.5t-24 -117.5zM274 1051q0 -53 19.5 -100.5t58.5 -83.5t93.5 -57.5t125.5 -21.5q70 0 125.5 21.5t94.5 56.5q39 37 58 84t19 101q0 49 -17 96t-53 83t-92.5 58.5t-134.5 22.5t-134 -22.5t-92 -58.5t-53.5 -83t-17.5 -96z" />
<glyph unicode="9" d="M104 977q0 94 31 175t87.5 141.5t136 94t178.5 33.5q125 0 215 -53t148 -148.5t87 -224.5t29 -278q0 -141 -27.5 -273.5t-89 -236t-159 -165.5t-234.5 -62q-106 0 -203.5 34.5t-183.5 94.5l47 100q80 -53 166 -85t172 -32q104 0 178 48t120 133t66.5 199t22.5 245 q-72 -78 -167 -127t-212 -49q-92 0 -167 32.5t-129 91t-83 138.5t-29 174zM229 975q0 -145 82 -233.5t221 -88.5q109 1 199 52q92 53 156 129q-23 236 -116 355.5t-241 119.5q-70 0 -125 -26t-94 -70t-60.5 -105t-21.5 -133z" />
<glyph unicode=":" horiz-adv-x="454" d="M135 72q0 41 24.5 66.5t67.5 25.5t67.5 -25.5t24.5 -66.5q1 -41 -24 -68q-25 -25 -68 -24q-43 0 -67.5 25.5t-24.5 66.5zM135 920q0 41 24.5 66.5t67.5 25.5t67.5 -25.5t24.5 -66.5q1 -41 -24 -68q-25 -25 -68 -24q-43 0 -67.5 25.5t-24.5 66.5z" />
<glyph unicode=";" horiz-adv-x="454" d="M45 -252q57 106 89 213t40 248l137 -12q-6 -59 -19 -123t-36 -128.5t-53.5 -127t-69.5 -115.5zM143 920q0 41 24.5 66.5t67.5 25.5t67.5 -25.5t24.5 -66.5q1 -41 -24 -68q-25 -25 -68 -24q-43 0 -67.5 25.5t-24.5 66.5z" />
<glyph unicode="&#x3c;" d="M182 635v131l760 350l19 -115l-680 -301l680 -303l-19 -114z" />
<glyph unicode="=" d="M164 426v107h831v-107h-831zM164 870v107h831v-107h-831z" />
<glyph unicode="&#x3e;" d="M182 397l680 303l-680 301l19 115l760 -350v-131l-760 -352z" />
<glyph unicode="?" horiz-adv-x="1007" d="M66 1333q27 23 66.5 47.5t89.5 44t108.5 31.5t124.5 12q90 0 167.5 -26.5t134 -72.5t88.5 -110.5t32 -140.5q0 -55 -17.5 -102t-45.5 -87t-65.5 -77t-76.5 -74q-41 -37 -76 -74.5t-62.5 -77.5t-45 -86t-19.5 -102h-123q2 63 19.5 117.5t47 103t70.5 92.5t90 89 q76 72 125.5 135t49.5 143q0 53 -23 97.5t-62.5 75t-93 47t-112.5 16.5q-100 0 -184.5 -33t-151.5 -80zM317 72q0 41 25 66.5t68 25.5t67.5 -25.5t24.5 -66.5t-25 -68q-25 -25 -67 -24q-43 0 -68 25.5t-25 66.5z" />
<glyph unicode="@" horiz-adv-x="2045" d="M109 426q0 221 72.5 407.5t203.5 320.5t310 209t395 75q186 0 342.5 -58.5t268 -168t174 -268.5t62.5 -359q0 -133 -27.5 -240.5t-78.5 -184.5t-124 -118t-165 -41q-96 0 -156.5 42t-91.5 108q-61 -61 -144 -105.5t-187 -44.5q-86 0 -154 33t-114 89t-70.5 133t-24.5 167 q0 102 31 191t86 156t131 104.5t166 37.5q84 0 154.5 -29.5t129.5 -76.5l17 88l92 8q-4 -78 -8 -171t-7 -180t-6.5 -161t-3.5 -113q0 -86 46.5 -128t111.5 -42q70 0 121 37t86 101.5t52.5 151.5t17.5 188q0 174 -51.5 312t-145.5 235.5t-228.5 148.5t-299.5 51 q-195 0 -354.5 -68.5t-272.5 -189.5t-174.5 -285.5t-61.5 -355.5q0 -178 53.5 -328.5t154 -260t244.5 -171t325 -61.5q104 0 201.5 21.5t201.5 66.5l35 -98q-98 -47 -201.5 -72t-230.5 -25q-205 0 -372 67t-284.5 187.5t-182 290.5t-64.5 377zM721 432q0 -143 67.5 -234.5 t200.5 -91.5q88 0 156 39q70 39 123 93q-2 10 -3 26.5t-1 42.5q0 8 1 51t4 103.5t5 127t6 126.5q-59 41 -121.5 65.5t-128.5 24.5q-70 0 -127 -27.5t-97 -77t-62.5 -118t-22.5 -150.5z" />
<glyph unicode="A" horiz-adv-x="1337" d="M29 0l577 1448h123l580 -1448h-138l-176 453h-661l-174 -453h-131zM377 561h575l-288 744z" />
<glyph unicode="B" horiz-adv-x="1284" d="M203 0v1448h491q96 0 177 -24.5t139.5 -72.5t91.5 -116t33 -154q0 -72 -21.5 -125t-54.5 -93t-73 -66.5t-79 -44.5q57 -16 110.5 -47t94.5 -77t65.5 -107.5t24.5 -141.5q0 -92 -34.5 -163t-95 -119t-141.5 -72.5t-175 -24.5h-553zM330 113h424q141 0 230 69.5t89 204.5 q0 70 -24.5 124t-67.5 93t-101.5 59.5t-125.5 20.5h-424v-571zM330 797h352q154 0 239 72.5t85 199.5t-88.5 196.5t-235.5 69.5h-352v-538z" />
<glyph unicode="C" horiz-adv-x="1284" d="M123 725q0 147 39 282.5t121 238t205.5 162.5t293.5 60q115 0 224.5 -28.5t220.5 -81.5l-47 -105q-125 57 -225.5 79t-178.5 22q-139 0 -237.5 -52.5t-163 -140.5t-94 -200.5t-29.5 -235.5t30.5 -236.5t93 -200.5t161 -140.5t233.5 -53.5q78 0 182.5 22.5t227.5 77.5 l47 -104q-106 -53 -222 -81.5t-229 -28.5q-170 0 -293 61t-202.5 163.5t-118.5 238t-39 282.5z" />
<glyph unicode="D" horiz-adv-x="1435" d="M203 0v1448h448q152 0 274 -53.5t208 -149.5t133 -229t47 -293t-47 -293t-133 -228.5t-208 -148.5t-274 -53h-448zM330 113h309q129 0 229.5 45t171 127t107.5 193.5t37 244.5t-37 245.5t-107.5 193.5t-171 127t-229.5 46h-309v-1222z" />
<glyph unicode="E" horiz-adv-x="1169" d="M203 0v1448h866v-113h-739v-553h608v-112h-608v-557h739v-113h-866z" />
<glyph unicode="F" horiz-adv-x="1122" d="M203 0v1448h866v-113h-739v-573h608v-113h-608v-649h-127z" />
<glyph unicode="G" horiz-adv-x="1404" d="M123 725q0 147 39 282.5t121 238t205.5 162.5t293.5 60q115 0 224.5 -28.5t220.5 -81.5l-47 -105q-125 57 -225.5 79t-178.5 22q-139 0 -237.5 -52.5t-163 -140.5t-94 -201.5t-29.5 -238.5q0 -121 29.5 -233.5t94 -199.5t169 -140.5t252.5 -53.5q72 0 158.5 14.5 t164.5 43.5v479h-350v110h473v-663q-88 -41 -211 -69.5t-246 -28.5q-172 0 -296.5 61t-206.5 163.5t-121 238t-39 282.5z" />
<glyph unicode="H" horiz-adv-x="1460" d="M203 0v1448h127v-666h800v666h127v-1448h-127v670h-800v-670h-127z" />
<glyph unicode="I" horiz-adv-x="552" d="M213 0v1448h127v-1448h-127z" />
<glyph unicode="J" horiz-adv-x="868" d="M18 27l25 110q55 -20 115.5 -31.5t113.5 -11.5q86 0 140.5 32t83 87t39 130t10.5 161v944h127v-944q0 -111 -16.5 -207t-59.5 -167t-119 -110.5t-194 -39.5q-68 0 -138.5 12t-126.5 35z" />
<glyph unicode="K" horiz-adv-x="1228" d="M203 0v1448h127v-844l684 844h143l-532 -651q129 -193 279.5 -382.5t307.5 -346.5l-94 -80q-78 78 -153.5 165t-148.5 179t-140.5 186t-126.5 184l-219 -268v-434h-127z" />
<glyph unicode="L" horiz-adv-x="1091" d="M203 0v1448h127v-1335h737v-113h-864z" />
<glyph unicode="M" horiz-adv-x="1728" d="M203 0v1448h147l518 -821l514 821h144v-1448h-125v1266l-494 -787h-84l-497 787v-1266h-123z" />
<glyph unicode="N" horiz-adv-x="1476" d="M203 0v1448h141l803 -1258v1258h127v-1448h-141l-803 1257v-1257h-127z" />
<glyph unicode="O" horiz-adv-x="1499" d="M123 725q0 160 42 295t123 235.5t197.5 156.5t264.5 56q147 0 263.5 -56t197.5 -156.5t123 -235.5t42 -295t-42 -296t-124 -236q-80 -98 -196.5 -155.5t-263.5 -57.5t-264 57t-198 156.5t-123 235.5t-42 296zM252 725q0 -129 31.5 -243.5t94 -200.5t156 -136.5 t216.5 -50.5t215 49q94 51 156.5 137.5t94 201t31.5 243.5t-31.5 243.5t-94 200.5t-156 135.5t-215.5 49.5q-123 0 -216.5 -49.5t-156 -135.5t-94 -200.5t-31.5 -243.5z" />
<glyph unicode="P" horiz-adv-x="1204" d="M203 0v1448h487q98 0 179 -31t139.5 -86t91.5 -134t33 -177t-33 -177t-91.5 -134.5t-139.5 -86t-179 -30.5h-360v-592h-127zM330 705h350q145 0 234.5 86t89.5 229t-89.5 229t-234.5 86h-350v-630z" />
<glyph unicode="Q" horiz-adv-x="1501" d="M123 725q0 160 42 295t123 235.5t197.5 156.5t266.5 56q147 0 264 -56t197.5 -156.5t122.5 -235.5t42 -295q0 -229 -87 -408.5t-249 -267.5q59 -78 125 -151.5t154 -145.5l-80 -94q-94 78 -170 165t-135 183q-43 -12 -89 -19t-95 -7q-150 0 -266.5 57t-197.5 156.5 t-123 235.5t-42 296zM252 725q0 -129 31.5 -243.5t94 -200.5t157 -136.5t217.5 -50.5t215 49q94 51 156.5 137.5t94 201t31.5 243.5t-31.5 243.5t-94 200.5t-156 135.5t-215.5 49.5q-123 0 -217.5 -49.5t-157 -135.5t-94 -200.5t-31.5 -243.5z" />
<glyph unicode="R" horiz-adv-x="1267" d="M203 0v1448h489q96 0 177 -28.5t139.5 -82t91.5 -130.5t33 -175q0 -174 -100.5 -276.5t-268.5 -126.5q111 -154 225.5 -291t245.5 -270l-94 -80q-152 156 -275 309.5t-239 323.5h-297v-621h-127zM330 729h352q143 0 232.5 80t89.5 223t-89.5 223t-232.5 80h-352v-606z " />
<glyph unicode="S" horiz-adv-x="1159" d="M59 119l52 104q123 -70 237.5 -99.5t216.5 -29.5q82 0 149.5 17.5t117 52.5t76 84t26.5 114q0 70 -32 119t-85 86t-127 66t-155 57q-86 31 -164 62.5t-137.5 76.5t-94.5 108.5t-35 156.5q0 98 40 168.5t105.5 116.5t150.5 67.5t178 21.5q113 0 224 -30.5t210 -85.5 l-47 -105q-98 51 -194.5 79t-192.5 28q-74 0 -136.5 -15.5t-108.5 -47t-73 -80t-27 -115.5q0 -61 28 -104.5t76 -76t111.5 -58.5t137.5 -50q92 -33 179 -69t152.5 -85t105.5 -118.5t40 -167.5q0 -92 -37 -164t-102.5 -122t-159.5 -75.5t-207 -25.5q-123 0 -247 32.5 t-251 106.5z" />
<glyph unicode="T" horiz-adv-x="1122" d="M35 1335v113h1052v-113h-462v-1335h-127v1335h-463z" />
<glyph unicode="U" horiz-adv-x="1445" d="M197 545v903h127v-895q0 -215 96 -337t303 -122t303 121t96 338v895h127v-903q0 -129 -34.5 -233.5t-101 -178.5t-165 -113.5t-225.5 -39.5t-225.5 39.5t-165 113.5t-101 178.5t-34.5 233.5z" />
<glyph unicode="V" horiz-adv-x="1247" d="M29 1448h133l463 -1292l465 1292h129l-531 -1448h-129z" />
<glyph unicode="W" horiz-adv-x="1896" d="M55 1448h133l326 -1278l363 1130h129l376 -1130l330 1278h129l-385 -1448h-135l-377 1128l-364 -1128h-136z" />
<glyph unicode="X" horiz-adv-x="1255" d="M37 0l516 733l-500 715h152l430 -619l434 619h145l-509 -717l514 -731h-152l-444 635l-441 -635h-145z" />
<glyph unicode="Y" horiz-adv-x="1206" d="M25 1448h141l438 -797l440 797h138l-516 -918v-530h-125v530z" />
<glyph unicode="Z" horiz-adv-x="1103" d="M59 86l813 1249h-790v113h942l8 -86l-811 -1249h801v-113h-952z" />
<glyph unicode="[" horiz-adv-x="780" d="M209 -455v1956h532v-104h-411v-1747h411v-105h-532z" />
<glyph unicode="\" horiz-adv-x="874" d="M6 1628h123l739 -1835h-123z" />
<glyph unicode="]" horiz-adv-x="780" d="M39 -350h412v1747h-412v104h532v-1956h-532v105z" />
<glyph unicode="^" d="M127 682l377 766h135l377 -766l-117 -20l-328 688l-327 -688z" />
<glyph unicode="_" horiz-adv-x="937" d="M0 -158h938v-106h-938v106z" />
<glyph unicode="`" horiz-adv-x="1024" d="M299 1561l92 81q72 -86 161 -181t173 -177l-66 -63q-41 33 -88 74.5t-96 86.5t-95 91.5t-81 87.5z" />
<glyph unicode="a" horiz-adv-x="1036" d="M86 291q0 90 37 152.5t97.5 101.5t139 56t164.5 17q74 0 129.5 -7t108.5 -17v68q0 139 -69.5 223t-217.5 84q-76 0 -151.5 -23.5t-143.5 -62.5l-41 94q70 43 159 69.5t187 26.5q102 0 176 -30.5t122 -84t72 -126t24 -156.5v-426q0 -59 3 -125t19 -125h-119 q-8 31 -12 67.5t-6 69.5q-31 -27 -73 -54.5t-90 -49t-101.5 -34.5t-106.5 -13q-66 0 -122 21.5t-97 60t-64.5 95t-23.5 128.5zM205 291q0 -84 52 -141.5t157 -57.5q45 0 93 11.5t93 31t86 45t76 51.5v273q-53 10 -112.5 14t-106.5 4q-162 0 -250 -60.5t-88 -170.5z" />
<glyph unicode="b" horiz-adv-x="1175" d="M180 0v1532l119 10v-618q78 66 169 107.5t194 41.5q100 0 176.5 -43t130 -115.5t81 -169t27.5 -202.5q0 -115 -30.5 -217.5t-90 -179t-145.5 -121.5t-197 -45q-94 0 -177 32.5t-142 79.5l-14 -92h-101zM299 199q63 -47 141 -80t164 -33q88 0 153.5 38t109.5 101.5 t66.5 146.5t22.5 173q0 86 -20.5 161.5t-60 134t-98 92.5t-136.5 34q-92 0 -181 -42t-161 -102v-624z" />
<glyph unicode="c" horiz-adv-x="983" d="M98 526q0 119 33 220.5t94.5 173t151.5 112.5t205 41q94 0 178 -24.5t153 -65.5l-41 -96q-72 39 -144.5 59.5t-143.5 20.5q-88 0 -157 -32t-115 -90.5t-69.5 -139t-23.5 -179.5q0 -96 22.5 -177t68.5 -139t116 -91t162 -33q76 0 150.5 22.5t148.5 63.5l41 -96 q-72 -45 -160 -70.5t-186 -25.5q-117 0 -207 39.5t-151.5 112.5t-93.5 173.5t-32 220.5z" />
<glyph unicode="d" horiz-adv-x="1167" d="M98 512q0 115 31 216t90.5 178t145.5 122t196 45q88 0 167 -30.5t140 -75.5v565l119 10v-1292q0 -59 3 -125t20 -125h-119q-8 29 -11 58.5t-8 62.5q-72 -59 -165 -100t-195 -41q-100 0 -177 43t-129 115.5t-80 168.5t-28 205zM219 510q0 -86 19.5 -163t58.5 -135 t99.5 -92t140.5 -34q82 0 169 37t162 96v637q-61 47 -139 79t-158 32q-90 0 -155.5 -38t-109.5 -100.5t-65.5 -145.5t-21.5 -173z" />
<glyph unicode="e" horiz-adv-x="1058" d="M98 532q0 111 27 209.5t81 172t137 116.5t196 43q100 0 179 -36t133 -98t82 -149.5t28 -189.5q0 -29 -2.5 -57.5t-6.5 -50.5h-733q10 -190 108.5 -298t274.5 -108q78 0 151.5 22.5t145.5 63.5l41 -96q-76 -47 -161 -71.5t-181 -24.5q-119 0 -212 39.5t-156.5 111.5 t-97.5 174.5t-34 226.5zM217 590h627q-2 174 -78 275.5t-225 101.5q-80 0 -138.5 -30t-98.5 -81t-60.5 -119.5t-26.5 -146.5z" />
<glyph unicode="f" horiz-adv-x="702" d="M29 950v103h231v94q0 403 352 403q43 0 79 -5t75 -15l-18 -105q-35 10 -67 14.5t-60 4.5q-139 0 -190.5 -80t-51.5 -242v-69h291v-103h-291v-950h-119v950h-231z" />
<glyph unicode="g" horiz-adv-x="1161" d="M98 516q0 113 31 214t90.5 177t144.5 121t195 45q92 0 172 -31.5t139 -76.5l9 84l108 10v-1016q0 -260 -105.5 -399.5t-344.5 -139.5q-199 0 -361 99l41 94q80 -43 156 -65.5t157 -22.5q96 0 161 28.5t105 84t56 135.5t16 182v86q-74 -57 -165 -97t-191 -40t-177 43 t-129 115.5t-80 168t-28 201.5zM219 512q0 -84 19.5 -160t58.5 -133t99.5 -91t140.5 -34q82 0 169 37t162 96v629q-61 47 -139 79t-158 32q-90 0 -155.5 -37t-109.5 -100.5t-65.5 -145.5t-21.5 -172z" />
<glyph unicode="h" horiz-adv-x="1169" d="M180 0v1532l119 10v-622q84 63 181.5 108t201.5 45q86 0 146.5 -31.5t100.5 -86t58.5 -129t18.5 -160.5v-416q0 -59 3 -125t19 -125h-119q-16 59 -19 124.5t-3 125.5v405q0 63 -11.5 119.5t-38 100t-70.5 68t-110 24.5q-90 0 -185 -44t-173 -108v-815h-119z" />
<glyph unicode="i" horiz-adv-x="479" d="M154 1425q0 41 23.5 63.5t62.5 22.5t62.5 -22.5t23.5 -63.5t-23.5 -64.5t-62.5 -23.5t-62.5 23.5t-23.5 64.5zM180 0v1049l119 10v-1059h-119z" />
<glyph unicode="j" horiz-adv-x="466" d="M-172 -465l25 96q55 -22 117 -22h5q113 0 156 86t43 262v1092l119 10v-1149q0 -199 -77 -302.5t-224 -103.5q-45 0 -87 8.5t-77 22.5zM147 1425q0 41 24 63.5t62 22.5q39 0 62.5 -22.5t23.5 -63.5t-23.5 -64.5t-62.5 -23.5t-62.5 23.5t-23.5 64.5z" />
<glyph unicode="k" horiz-adv-x="1021" d="M180 0v1532l119 10v-1063l522 574h144l-400 -435q100 -156 209 -294t230 -261l-89 -75q-100 102 -208.5 240.5t-219.5 303.5l-188 -202v-330h-119z" />
<glyph unicode="l" horiz-adv-x="479" d="M180 0v1532l119 10v-1542h-119z" />
<glyph unicode="m" horiz-adv-x="1761" d="M174 0v1049l105 10l12 -131q72 57 159 101t187 44q96 0 161.5 -44t102.5 -120q80 72 174 118t199 46q84 0 144.5 -31.5t100.5 -86t59 -129t19 -160.5v-416q0 -59 3.5 -125t19.5 -125h-119q-16 59 -19 124.5t-3 125.5v405q0 63 -11.5 121t-38 100t-68.5 66.5t-106 24.5 q-86 0 -170 -41t-155 -95q22 -77 22 -158v-7v-416q0 -59 3 -125t20 -125h-119q-16 59 -19 124.5t-3 125.5v405q0 63 -11.5 119.5t-37 100t-68.5 68t-105 24.5q-82 0 -162.5 -40t-156.5 -96v-831h-119z" />
<glyph unicode="n" horiz-adv-x="1163" d="M174 0v1049l105 10l12 -141q86 66 183 110.5t202 44.5q86 0 146.5 -31.5t100.5 -86t58 -129t18 -160.5v-416q0 -59 3.5 -125t19.5 -125h-119q-16 59 -19 124.5t-3 125.5v405q0 63 -11.5 119.5t-38 100t-70.5 68t-110 24.5q-90 0 -185 -44t-173 -108v-815h-119z" />
<glyph unicode="o" horiz-adv-x="1159" d="M98 526q0 121 33 221.5t94.5 173t150.5 112.5t204 40t203.5 -40t150 -112.5t94.5 -173t33 -221.5t-33 -221t-94 -174q-61 -72 -150.5 -111.5t-203.5 -39.5q-115 0 -204 39.5t-150.5 112.5t-94.5 173.5t-33 220.5zM219 526q0 -96 23.5 -176t68.5 -139t113 -92t156 -33 q87 0 155 33t113 92t68.5 139t23.5 176q0 94 -23.5 175t-68.5 140.5t-112.5 92.5t-155.5 33t-156 -33t-113 -92.5t-68.5 -140t-23.5 -175.5z" />
<glyph unicode="p" horiz-adv-x="1169" d="M174 -475v1524l105 10l12 -135q80 66 171 107.5t193 41.5q100 0 177 -43t130.5 -115.5t81 -169t27.5 -202.5q0 -115 -30.5 -217.5t-90 -179t-144.5 -121.5t-196 -45q-94 0 -175 30.5t-142 77.5v-563h-119zM293 199q63 -47 142 -80t163 -33q88 0 154.5 38t110.5 101.5 t65.5 146.5t21.5 173q0 86 -20.5 161.5t-60.5 134t-98 92.5t-136 34q-92 0 -181 -42t-161 -102v-624z" />
<glyph unicode="q" horiz-adv-x="1161" d="M98 514q0 113 31 215t90.5 178t144.5 121t195 45q92 0 172 -31.5t139 -76.5l9 84l108 10v-1534h-119v592q-74 -57 -165 -97t-191 -40t-177 43t-129 115.5t-80 170t-28 205.5zM219 510q0 -86 19.5 -163t58.5 -135t99.5 -92t140.5 -34q82 0 169 37t162 96v637 q-61 47 -139 79t-158 32q-90 0 -155.5 -38t-109.5 -100.5t-65.5 -145.5t-21.5 -173z" />
<glyph unicode="r" horiz-adv-x="743" d="M174 0v1049l105 10l14 -160q72 82 148.5 128t158.5 46q25 0 60.5 -5t60.5 -13l-29 -115q-53 16 -104 16q-82 0 -155 -43t-140 -120v-793h-119z" />
<glyph unicode="s" horiz-adv-x="940" d="M90 72l41 98q78 -41 166 -62.5t174 -21.5q47 0 93 8t83 28.5t59.5 53.5t22.5 82q0 45 -21.5 78t-59.5 57.5t-92 46t-122 45.5q-66 25 -126 50.5t-106 60.5t-73 82t-27 115q0 70 30 123t81 87.5t118.5 52t143.5 17.5q86 0 175 -22.5t173 -67.5l-41 -96q-78 39 -156.5 59.5 t-152.5 20.5q-49 0 -94 -10.5t-80 -31t-55.5 -52t-20.5 -74.5t19.5 -73t56.5 -54.5t88 -45t115 -42.5q66 -23 128 -48.5t111.5 -61.5t79 -86t29.5 -124q0 -76 -32 -130t-85 -88t-123.5 -50t-148.5 -16q-100 0 -197.5 24.5t-173.5 67.5z" />
<glyph unicode="t" horiz-adv-x="751" d="M29 950v103h231v272l119 10v-282h291v-103h-291v-559q0 -70 9 -126t31.5 -96t59.5 -61.5t94 -21.5q59 0 115 18l25 -98q-35 -16 -72 -21t-68 -5q-78 0 -137 22.5t-98 74.5t-58.5 137t-19.5 208v528h-231z" />
<glyph unicode="u" horiz-adv-x="1114" d="M141 387v662l119 10v-662q0 -63 11.5 -119.5t38 -99.5t70.5 -67.5t109 -24.5q82 0 169 38t163 93v832l119 10v-809q0 -59 3 -125t20 -125h-119q-6 23 -10.5 53.5t-8.5 63.5q-78 -57 -171 -97t-189 -40q-84 0 -144.5 31.5t-100.5 86t-59.5 129t-19.5 160.5z" />
<glyph unicode="v" horiz-adv-x="958" d="M18 1053h129l332 -916l340 916h121l-395 -1053h-129z" />
<glyph unicode="w" horiz-adv-x="1476" d="M45 1053h123l250 -914l266 819h109l268 -819l254 914h117l-304 -1053h-131l-262 780l-254 -780h-133z" />
<glyph unicode="x" horiz-adv-x="958" d="M23 0l387 543l-365 510h137l299 -424l299 424h133l-366 -512l389 -541h-137l-324 451l-319 -451h-133z" />
<glyph unicode="y" horiz-adv-x="958" d="M18 1053h129l334 -926l338 926h121l-356 -961q-72 -188 -163 -333.5t-196 -256.5l-82 78q86 92 156 193.5t123 212.5z" />
<glyph unicode="z" horiz-adv-x="921" d="M61 98l631 852h-592v103h725l11 -99l-631 -852h631v-102h-764z" />
<glyph unicode="{" horiz-adv-x="843" d="M90 467v111q68 4 120 19t87 48t52.5 84t17.5 127q0 74 -10.5 151.5t-10.5 153.5q0 178 80 269.5t260 91.5q33 0 66.5 -3t56.5 -8l-16 -100q-43 6 -93 6q-123 0 -177 -59.5t-54 -202.5q0 -74 9 -149.5t9 -143.5q0 -147 -61 -228t-182 -112q121 -31 182 -110.5t61 -227.5 q0 -68 -9 -143.5t-9 -149.5q0 -143 54.5 -202.5t176.5 -59.5q49 0 93 6l16 -100q-23 -4 -56.5 -7t-66.5 -3q-180 0 -260 91t-80 269q0 76 10.5 154t10.5 151q0 76 -17.5 127.5t-52.5 83t-87 47t-120 19.5z" />
<glyph unicode="|" horiz-adv-x="647" d="M264 -492v2024l119 10v-2023z" />
<glyph unicode="}" horiz-adv-x="843" d="M35 -465l16 100q43 -6 92 -6q123 0 177.5 59.5t54.5 202.5q0 74 -9.5 150t-9.5 143q0 147 61.5 227.5t182.5 110.5q-121 31 -182.5 112t-61.5 228q0 68 9.5 143.5t9.5 149.5q0 143 -54.5 202.5t-177.5 59.5q-49 0 -92 -6l-16 100q23 4 56.5 7.5t66.5 3.5q180 0 260 -91.5 t80 -269.5q0 -76 -10.5 -153.5t-10.5 -151.5q0 -76 17.5 -127t52.5 -84t87 -48t120 -19v-111q-68 -4 -120 -19.5t-87 -47t-52.5 -83t-17.5 -127.5q0 -74 10.5 -151.5t10.5 -153.5q0 -178 -80 -269t-260 -91q-33 0 -67 3t-56 7z" />
<glyph unicode="~" d="M113 625q53 90 113.5 145t154.5 55q57 0 103 -19.5t91 -43.5q49 -29 95.5 -52.5t93.5 -23.5q59 0 100 41t84 107l82 -58q-53 -90 -113.5 -145.5t-154.5 -55.5q-57 0 -103.5 19.5t-91.5 44.5q-49 29 -95 52.5t-93 23.5q-59 0 -100 -41t-84 -107z" />
<glyph unicode="&#xa1;" horiz-adv-x="499" d="M158 981q0 41 24.5 66.5t67.5 25.5t67.5 -25.5t24.5 -66.5t-25 -68q-25 -25 -67 -24q-43 0 -67.5 25.5t-24.5 66.5zM190 -410v1024h119v-1013z" />
<glyph unicode="&#xa2;" d="M164 590q0 113 26.5 208t81 165.5t133 114.5t183.5 55v297l102 8v-303q82 -4 155 -28t134 -60l-41 -97q-61 33 -123.5 53.5t-124.5 24.5v-878q66 4 131.5 26.5t130.5 59.5l41 -97q-66 -41 -141.5 -65.5t-161.5 -30.5v-291l-102 -8v301q-102 10 -182 54t-133.5 116 t-81 167t-27.5 208zM285 590q0 -88 18.5 -163t56 -131t95 -93t133.5 -49v872q-147 -23 -225 -138.5t-78 -297.5z" />
<glyph unicode="&#xa3;" d="M143 664v104h179q-12 76 -17.5 127t-5.5 117q0 100 29.5 177t83 130t127 80.5t161.5 27.5q109 0 203 -37.5t178 -101.5l-61 -92q-78 57 -156 88t-164 31q-59 0 -109 -15.5t-88 -52.5t-59.5 -98.5t-21.5 -153.5q0 -53 7 -107t17 -120h353v-104h-336q8 -47 9 -85t1 -69 q0 -109 -28.5 -215.5t-92.5 -183.5h713v-111h-860l-12 92q49 45 79.5 98.5t48 108.5t23.5 109.5t6 103.5q0 59 -12 152h-195z" />
<glyph unicode="&#xa4;" d="M94 295l158 158q-41 51 -62.5 114.5t-21.5 134.5q0 74 21.5 137.5t62.5 114.5l-158 158l76 76l162 -162q100 70 239 70t240 -70l162 162l76 -76l-158 -158q41 -51 62.5 -114.5t21.5 -137.5q0 -72 -21.5 -135t-62.5 -114l158 -158l-76 -76l-162 162q-100 -70 -240 -70 q-139 0 -239 70l-162 -162zM285 702q0 -59 19.5 -111t56 -90t90 -59.5t120.5 -21.5q68 0 121 20q53 23 90 61t56.5 90t19.5 111q0 61 -19.5 112.5t-56.5 90.5t-90 60.5t-121 21.5t-121 -21.5t-89.5 -60.5t-56 -90t-19.5 -113z" />
<glyph unicode="&#xa5;" d="M94 1401h139l338 -690l342 690h134l-375 -729h280v-101h-319v-206h319v-101h-319v-264h-123v264h-320v101h320v206h-320v101h281z" />
<glyph unicode="&#xa6;" horiz-adv-x="647" d="M264 338l119 10v-829l-119 -11v830zM264 702v830l119 10v-829z" />
<glyph unicode="&#xa7;" horiz-adv-x="1239" d="M219 641q0 51 17.5 93t48 77t71.5 61.5t86 47.5q-86 45 -133 105t-47 159q0 70 26.5 123t74 89t113 54t142.5 18q88 0 179.5 -23.5t173.5 -74.5l-41 -96q-166 90 -312 90q-104 0 -170.5 -43t-66.5 -133q0 -49 21.5 -84t59.5 -61.5t91 -48t117 -46.5q72 -27 135 -54.5 t111.5 -64t76 -86t27.5 -116.5q0 -51 -17.5 -93t-48 -77t-71.5 -61.5t-86 -47.5q86 -45 133 -105.5t47 -158.5q0 -70 -26.5 -123t-74 -89t-113 -54.5t-142.5 -18.5q-88 0 -179.5 23.5t-173.5 75.5l41 96q166 -90 312 -90q104 0 170.5 43t66.5 133q0 49 -21.5 84t-59.5 61.5 t-91 48t-117 45.5q-72 27 -135 54.5t-111.5 64.5t-76 86t-27.5 117zM338 657q0 -41 15.5 -71.5t47 -56t80.5 -48t115 -49.5l104 -41q92 39 146.5 93.5t54.5 125.5q0 41 -15.5 72t-47 56.5t-80.5 48t-115 49.5l-104 41q-92 -39 -146.5 -93.5t-54.5 -126.5z" />
<glyph unicode="&#xa8;" horiz-adv-x="1024" d="M219 1382q0 39 22.5 61.5t61.5 22.5t61.5 -22.5t22.5 -61.5q1 -38 -22 -63q-23 -23 -62 -23t-61.5 23.5t-22.5 62.5zM637 1382q0 39 22.5 61.5t61.5 22.5t61.5 -22.5t22.5 -61.5q0 -38 -23 -63q-23 -23 -61 -23q-39 0 -61.5 23.5t-22.5 62.5z" />
<glyph unicode="&#xa9;" horiz-adv-x="1734" d="M123 723q0 160 55 297t154.5 236.5t236 155.5t297.5 56q162 0 299.5 -56t236.5 -155.5t154.5 -236.5t55.5 -297q-1 -160 -56 -297q-55 -135 -154 -234.5t-236.5 -155.5t-299.5 -56t-298 56t-235.5 155.5t-154.5 235.5t-55 296zM236 723q0 -139 47 -256t132 -201 t200.5 -132t252.5 -48t252 47q117 49 201 133t131 201t47 256q0 137 -47 254t-131 203t-199.5 134t-253.5 48q-137 0 -252.5 -48t-200.5 -134t-132 -203t-47 -254zM547 725q0 76 20.5 144.5t62.5 120.5t105.5 83t149.5 31q70 0 128 -18.5t107 -47.5l-43 -88q-106 51 -192 51 q-61 0 -104.5 -22.5t-71 -61t-40 -88t-12.5 -104.5t12.5 -104.5t40 -88t70.5 -61t105 -22.5q86 0 192 51l43 -88q-49 -29 -107.5 -47.5t-127.5 -18.5q-86 0 -149.5 31t-105.5 83t-62.5 120.5t-20.5 144.5z" />
<glyph unicode="&#xaa;" horiz-adv-x="718" d="M47 483v97h596v-97h-596zM55 971q0 111 76 166t201 55q33 0 77 -5t91 -16v54q0 84 -47 117.5t-121 33.5q-51 0 -101.5 -13t-93.5 -36l-39 84q45 23 111.5 40t134.5 17q123 0 192.5 -61t69.5 -186v-279q0 -37 3 -81t14 -93h-107q-10 41 -12 76q-41 -33 -100.5 -57.5 t-129.5 -24.5q-106 0 -162.5 58.5t-56.5 150.5zM162 975q0 -57 34.5 -89t96.5 -32q59 0 115.5 25.5t91.5 54.5v158q-41 6 -80 9t-66 3q-88 0 -140 -32t-52 -97z" />
<glyph unicode="&#xab;" horiz-adv-x="1062" d="M111 502v49l309 399h135l-322 -424l322 -424h-135zM508 502v49l309 399h135l-322 -424l322 -424h-135z" />
<glyph unicode="&#xac;" d="M156 793v104h831v-393h-108v289h-723z" />
<glyph unicode="&#xad;" horiz-adv-x="845" d="M113 473v107h620v-107h-620z" />
<glyph unicode="&#xae;" horiz-adv-x="1011" d="M90 1044q0 90 31 166t85 131.5t131 87t169 31.5t169 -31.5t131 -87t85 -131t31 -166.5q0 -90 -31 -165.5t-86 -130.5q-53 -55 -130 -87t-169 -32t-169 31.5t-131 87t-85 131t-31 165.5zM172 1044q0 -74 24.5 -136t68.5 -107t105.5 -69.5t135.5 -24.5q74 -1 135 24 t105.5 70t69 107.5t24.5 135.5q0 74 -24.5 136.5t-69 107.5t-105.5 69.5t-135 24.5t-135.5 -24.5t-105.5 -69.5t-68.5 -107.5t-24.5 -136.5zM360 819v447h172q63 0 103.5 -36t40.5 -100q0 -53 -30 -84.5t-79 -39.5q33 -41 65 -75t70 -73l-59 -47q-86 90 -158 188h-47v-180 h-78zM440 1067h84q74 0 74 63q0 66 -74 66h-84v-129z" />
<glyph unicode="&#xaf;" horiz-adv-x="1024" d="M199 1333v101h626v-101h-626z" />
<glyph unicode="&#xb0;" horiz-adv-x="708" d="M55 1137q0 135 83 209.5t216 74.5t216 -74.5t83 -209.5t-83 -210t-216 -75t-216 74.5t-83 210.5zM166 1137q0 -86 51 -135.5t137 -49.5q87 0 138 49t51 136q0 86 -51.5 135t-137.5 49t-137 -49t-51 -135z" />
<glyph unicode="&#xb1;" d="M164 0v107h831v-107h-831zM164 672v107h362v366h109v-366h360v-107h-360v-366h-109v366h-362z" />
<glyph unicode="&#xb2;" horiz-adv-x="819" d="M151 1325q55 45 126 70.5t141 25.5q115 0 185.5 -63.5t70.5 -163.5q0 -47 -17.5 -85t-45.5 -69.5t-64.5 -59.5t-75.5 -54q-78 -53 -127 -107.5t-66 -128.5h404v-96h-520q0 6 -1.5 16.5t-1.5 20.5q0 70 21.5 124t57.5 97t80 79t89 71q82 61 118 99t36 93q0 59 -41 92 t-109 33q-55 0 -109 -20.5t-95 -53.5z" />
<glyph unicode="&#xb3;" horiz-adv-x="819" d="M114 670l58 80q98 -74 217 -74q90 0 141 36t51 103q0 63 -47 103.5t-119 40.5h-92v94h68q78 0 119 38t41 97t-43 95t-113 36q-49 0 -100.5 -17.5t-100.5 -54.5l-55 80q55 45 123.5 69.5t140.5 24.5q55 0 102.5 -16t82 -45t55 -70t20.5 -90q0 -68 -35.5 -115t-91.5 -75 q70 -25 114 -79t44 -126q0 -53 -22.5 -96t-62.5 -73t-95.5 -46t-118.5 -16q-76 0 -146.5 23.5t-134.5 72.5z" />
<glyph unicode="&#xb4;" horiz-adv-x="1024" d="M299 1284q84 82 173 177t161 181l92 -81q-35 -41 -81 -87.5t-95 -91.5t-97.5 -87t-86.5 -74z" />
<glyph unicode="&#xb5;" horiz-adv-x="1185" d="M174 -475v1524l119 10v-697q0 -68 21.5 -118.5t57.5 -85.5t85 -53.5t104 -18.5q84 0 158 40t139 105v818l119 10v-856q0 -57 18.5 -87t63.5 -30q29 0 82 18l24 -96q-41 -16 -72.5 -22t-60.5 -6q-72 0 -113.5 38.5t-52.5 106.5q-141 -145 -315 -145q-92 0 -155.5 37.5 t-102.5 97.5v-590h-119z" />
<glyph unicode="&#xb6;" horiz-adv-x="1243" d="M72 1112q0 70 22.5 130.5t70.5 106.5t120.5 72.5t175.5 26.5h579v-1763l-118 -11v1672h-273v-1661l-119 -11v1100h-69q-102 0 -175 26.5t-121 73t-70.5 107.5t-22.5 131z" />
<glyph unicode="&#xb7;" horiz-adv-x="454" d="M135 527q0 41 24.5 66.5t67.5 25.5t67.5 -25.5t24.5 -66.5q1 -41 -24 -68q-25 -25 -68 -24q-43 0 -67.5 25.5t-24.5 66.5z" />
<glyph unicode="&#xb8;" horiz-adv-x="1024" d="M336 -459l23 82q18 -4 44.5 -9t53.5 -5q55 0 92 23.5t37 68.5q0 43 -38 69.5t-105 26.5q-29 0 -62 -6l31 260h98l-20 -178q92 -4 146 -51t54 -125q0 -84 -60 -132t-159 -48q-39 0 -72.5 7t-62.5 17z" />
<glyph unicode="&#xb9;" horiz-adv-x="819" d="M168 1296l278 105h96v-807h-108v700l-232 -86z" />
<glyph unicode="&#xba;" horiz-adv-x="815" d="M94 1114q0 158 81 256t233 98t232.5 -98t80.5 -256q0 -160 -82 -258q-80 -98 -231 -98q-152 0 -233 98t-81 258zM111 483v97h596v-97h-596zM201 1114q0 -111 52.5 -182.5t154.5 -71.5t154 72t52 182q0 111 -52 181.5t-154 70.5t-154.5 -70.5t-52.5 -181.5z" />
<glyph unicode="&#xbb;" horiz-adv-x="1062" d="M111 102l323 424l-323 424h137l307 -399v-49l-307 -400h-137zM508 102l323 424l-323 424h137l307 -399v-49l-307 -400h-137z" />
<glyph unicode="&#xbc;" horiz-adv-x="1832" d="M181 1296l278 105h96v-807h-108v700l-232 -86zM469 0l704 1401h117l-704 -1401h-117zM1007 258l391 549h138v-535h116v-94h-116v-178h-103v178h-415zM1126 272h307v424z" />
<glyph unicode="&#xbd;" horiz-adv-x="1832" d="M156 1296l278 105h96v-807h-108v700l-232 -86zM442 0l704 1401h117l-704 -1401h-117zM1149 731q55 45 126 70.5t141 25.5q115 0 185.5 -63.5t70.5 -163.5q0 -47 -17.5 -85t-45.5 -69.5t-64.5 -59.5t-75.5 -54q-78 -53 -127 -107.5t-66 -128.5h404v-96h-520q0 6 -1.5 16.5 t-1.5 20.5q0 70 21.5 124t57.5 97t80 79t89 71q82 61 118 99t36 93q0 59 -41 92t-109 33q-55 0 -109 -20.5t-95 -53.5z" />
<glyph unicode="&#xbe;" horiz-adv-x="1832" d="M114 670l58 80q98 -74 217 -74q90 0 141 36t51 103q0 63 -47 103.5t-119 40.5h-92v94h68q78 0 119 38t41 97t-43 95t-113 36q-49 0 -100.5 -17.5t-100.5 -54.5l-55 80q55 45 123.5 69.5t140.5 24.5q55 0 102.5 -16t82 -45t55 -70t20.5 -90q0 -68 -35.5 -115t-91.5 -75 q70 -25 114 -79t44 -126q0 -53 -22.5 -96t-62.5 -73t-95.5 -46t-118.5 -16q-76 0 -146.5 23.5t-134.5 72.5zM535 0l704 1401h117l-704 -1401h-117zM1073 258l391 549h138v-535h116v-94h-116v-178h-103v178h-415zM1192 272h307v424z" />
<glyph unicode="&#xbf;" horiz-adv-x="1007" d="M131 -66q0 55 17.5 102.5t45 87.5t64.5 77t78 73q39 37 74.5 75t63.5 78t44.5 86t20.5 101h123q-4 -129 -67 -220t-161 -181q-76 -72 -125 -135.5t-49 -143.5q0 -53 22.5 -97t62.5 -74.5t93.5 -47t112.5 -16.5q100 0 184 32.5t152 80.5l55 -93q-29 -23 -67.5 -47 t-89 -43.5t-109 -32t-123.5 -12.5q-90 0 -168 27t-134 73t-88 110.5t-32 139.5zM506 981q0 41 24.5 66.5t67.5 25.5t67.5 -25.5t24.5 -66.5q1 -41 -24 -68q-25 -25 -68 -24q-43 0 -67.5 25.5t-24.5 66.5z" />
<glyph unicode="&#xc0;" horiz-adv-x="1337" d="M29 0l577 1448h123l580 -1448h-138l-176 453h-661l-174 -453h-131zM377 561h575l-288 744zM424 1751l45 115q100 -47 215 -92t228 -86l-29 -86q-51 12 -111.5 29.5t-122 38t-120 41t-105.5 40.5z" />
<glyph unicode="&#xc1;" horiz-adv-x="1337" d="M29 0l577 1448h123l580 -1448h-138l-176 453h-661l-174 -453h-131zM377 561h575l-288 744zM424 1688q113 41 227.5 86t215.5 92l45 -115q-47 -20 -105.5 -40.5t-120 -41t-122 -38t-111.5 -29.5z" />
<glyph unicode="&#xc2;" horiz-adv-x="1337" d="M29 0l577 1448h123l580 -1448h-138l-176 453h-661l-174 -453h-131zM320 1686q92 53 171 101t150 95h54q72 -47 150.5 -95t170.5 -101l-35 -78q-96 45 -167.5 80.5t-145.5 76.5q-74 -41 -145.5 -76.5t-167.5 -80.5zM377 561h575l-288 744z" />
<glyph unicode="&#xc3;" horiz-adv-x="1337" d="M29 0l577 1448h123l580 -1448h-138l-176 453h-661l-174 -453h-131zM336 1651q0 80 51.5 127t135.5 47q43 0 77.5 -14.5t75.5 -47.5q45 -37 74 -55t63 -18q41 0 62.5 23.5t21.5 64.5q0 23 -4 39l97 10q4 -14 6 -28.5t2 -33.5q0 -80 -51.5 -127t-135.5 -47 q-43 0 -77.5 14.5t-75.5 47.5q-45 37 -74 55t-63 18q-41 0 -62.5 -23.5t-21.5 -64.5q0 -23 4 -39l-97 -10q-4 12 -6 27.5t-2 34.5zM377 561h575l-288 744z" />
<glyph unicode="&#xc4;" horiz-adv-x="1337" d="M29 0l577 1448h123l580 -1448h-138l-176 453h-661l-174 -453h-131zM371 1714q0 39 23.5 61.5t62.5 22.5t61.5 -22.5t22.5 -61.5q0 -41 -22.5 -63.5t-61.5 -22.5t-62.5 22.5t-23.5 63.5zM377 561h575l-288 744zM795 1714q0 39 22.5 61.5t61.5 22.5t62.5 -22.5t23.5 -61.5 q0 -41 -23.5 -63.5t-62.5 -22.5t-61.5 22.5t-22.5 63.5z" />
<glyph unicode="&#xc5;" horiz-adv-x="1337" d="M29 0l542 1364q-66 25 -101.5 79t-35.5 126q0 94 61.5 156.5t170.5 62.5t170 -62.5t61 -156.5q0 -72 -35 -125t-100 -78l547 -1366h-138l-176 453h-661l-174 -453h-131zM377 561h575l-288 744zM530 1569q0 -57 36.5 -94t99.5 -37t99 36.5t36 94.5q0 57 -36 94t-99 37 t-99.5 -37t-36.5 -94z" />
<glyph unicode="&#xc6;" horiz-adv-x="1892" d="M18 0l842 1448h932v-113h-739v-553h608v-112h-608v-557h739v-113h-866v453h-514l-258 -453h-136zM475 561h451v785z" />
<glyph unicode="&#xc7;" horiz-adv-x="1284" d="M123 725q0 147 39 282.5t121 238t205.5 162.5t293.5 60q115 0 224.5 -28.5t220.5 -81.5l-47 -105q-125 57 -225.5 79t-178.5 22q-139 0 -237.5 -52.5t-163 -140.5t-94 -200.5t-29.5 -235.5t30.5 -236.5t93 -200.5t161 -140.5t233.5 -53.5q78 0 182.5 22.5t227.5 78.5 l47 -105q-102 -53 -213 -79.5t-219 -30.5l-13 -103q94 -6 148.5 -55t54.5 -127t-57.5 -128t-161.5 -50q-41 0 -75 7t-62 17l22 86q18 -6 45 -10t56 -4q47 0 82.5 18.5t35.5 67.5t-37.5 73.5t-99.5 24.5q-27 0 -59 -6l22 193q-147 14 -255.5 79.5t-179.5 167t-104.5 228.5 t-33.5 266z" />
<glyph unicode="&#xc8;" horiz-adv-x="1169" d="M203 0v1448h866v-113h-739v-553h608v-112h-608v-557h739v-113h-866zM362 1751l45 115q100 -47 215 -92t228 -86l-29 -86q-51 12 -111.5 29.5t-122 38t-120 41t-105.5 40.5z" />
<glyph unicode="&#xc9;" horiz-adv-x="1169" d="M203 0v1448h866v-113h-739v-553h608v-112h-608v-557h739v-113h-866zM387 1688q113 41 227.5 86t215.5 92l45 -115q-47 -20 -105.5 -40.5t-120 -41t-122 -38t-111.5 -29.5z" />
<glyph unicode="&#xca;" horiz-adv-x="1169" d="M203 0v1448h866v-113h-739v-553h608v-112h-608v-557h739v-113h-866zM283 1686q92 53 171 101t150 95h54q72 -47 150.5 -95t170.5 -101l-35 -78q-96 45 -167.5 80.5t-145.5 76.5q-74 -41 -145.5 -76.5t-167.5 -80.5z" />
<glyph unicode="&#xcb;" horiz-adv-x="1169" d="M203 0v1448h866v-113h-739v-553h608v-112h-608v-557h739v-113h-866zM334 1714q0 39 23.5 61.5t62.5 22.5t61.5 -22.5t22.5 -61.5q0 -41 -22.5 -63.5t-61.5 -22.5t-62.5 22.5t-23.5 63.5zM758 1714q0 39 22.5 61.5t61.5 22.5t62.5 -22.5t23.5 -61.5q0 -41 -23.5 -63.5 t-62.5 -22.5t-61.5 22.5t-22.5 63.5z" />
<glyph unicode="&#xcc;" horiz-adv-x="552" d="M12 1751l45 115q100 -47 215 -92t228 -86l-29 -86q-51 12 -111.5 29.5t-122 38t-120 41t-105.5 40.5zM213 0v1448h127v-1448h-127z" />
<glyph unicode="&#xcd;" horiz-adv-x="552" d="M53 1688q113 41 227.5 86t215.5 92l45 -115q-47 -20 -105.5 -40.5t-120 -41t-122 -38t-111.5 -29.5zM213 0v1448h127v-1448h-127z" />
<glyph unicode="&#xce;" horiz-adv-x="552" d="M-72 1686q92 53 171 101t150 95h54q72 -47 150.5 -95t170.5 -101l-35 -78q-96 45 -167.5 80.5t-145.5 76.5q-74 -41 -145.5 -76.5t-167.5 -80.5zM213 0v1448h127v-1448h-127z" />
<glyph unicode="&#xcf;" horiz-adv-x="552" d="M34 1714q0 39 22.5 61.5t61.5 22.5t61.5 -22.5t22.5 -61.5q1 -38 -22 -63q-23 -23 -62 -23t-61.5 23.5t-22.5 62.5zM213 0v1448h127v-1448h-127zM350 1714q0 39 22.5 61.5t61.5 22.5t61.5 -22.5t22.5 -61.5q0 -38 -23 -63q-23 -23 -61 -23q-39 0 -61.5 23.5t-22.5 62.5z " />
<glyph unicode="&#xd0;" horiz-adv-x="1435" d="M47 694v101h156v653h448q152 0 274 -53.5t208 -149.5t133 -229t47 -293t-47 -293t-133 -228.5t-208 -148.5t-274 -53h-448v694h-156zM330 113h309q129 0 229.5 45t171 127t107.5 193.5t37 244.5t-37 245.5t-107.5 193.5t-171 127t-229.5 46h-309v-540h327v-101h-327v-581 z" />
<glyph unicode="&#xd1;" horiz-adv-x="1476" d="M203 0v1448h141l803 -1258v1258h127v-1448h-141l-803 1257v-1257h-127zM405 1651q0 80 51.5 127t135.5 47q43 0 77.5 -14.5t75.5 -47.5q45 -37 74 -55t63 -18q41 0 62.5 23.5t21.5 64.5q0 23 -4 39l97 10q4 -14 6 -28.5t2 -33.5q0 -80 -51.5 -127t-135.5 -47 q-43 0 -77.5 14.5t-75.5 47.5q-45 37 -74 55t-63 18q-41 0 -62.5 -23.5t-21.5 -64.5q0 -23 4 -39l-97 -10q-4 12 -6 27.5t-2 34.5z" />
<glyph unicode="&#xd2;" horiz-adv-x="1499" d="M123 725q0 160 42 295t123 235.5t197.5 156.5t264.5 56q147 0 263.5 -56t197.5 -156.5t123 -235.5t42 -295t-42 -296t-124 -236q-80 -98 -196.5 -155.5t-263.5 -57.5t-264 57t-198 156.5t-123 235.5t-42 296zM252 725q0 -129 31.5 -243.5t94 -200.5t156 -136.5 t216.5 -50.5t215 49q94 51 156.5 137.5t94 201t31.5 243.5t-31.5 243.5t-94 200.5t-156 135.5t-215.5 49.5q-123 0 -216.5 -49.5t-156 -135.5t-94 -200.5t-31.5 -243.5zM506 1751l45 115q100 -47 215 -92t228 -86l-29 -86q-51 12 -111.5 29.5t-122 38t-120 41t-105.5 40.5z " />
<glyph unicode="&#xd3;" horiz-adv-x="1499" d="M123 725q0 160 42 295t123 235.5t197.5 156.5t264.5 56q147 0 263.5 -56t197.5 -156.5t123 -235.5t42 -295t-42 -296t-124 -236q-80 -98 -196.5 -155.5t-263.5 -57.5t-264 57t-198 156.5t-123 235.5t-42 296zM252 725q0 -129 31.5 -243.5t94 -200.5t156 -136.5 t216.5 -50.5t215 49q94 51 156.5 137.5t94 201t31.5 243.5t-31.5 243.5t-94 200.5t-156 135.5t-215.5 49.5q-123 0 -216.5 -49.5t-156 -135.5t-94 -200.5t-31.5 -243.5zM506 1688q113 41 227.5 86t215.5 92l45 -115q-47 -20 -105.5 -40.5t-120 -41t-122 -38t-111.5 -29.5z " />
<glyph unicode="&#xd4;" horiz-adv-x="1499" d="M123 725q0 160 42 295t123 235.5t197.5 156.5t264.5 56q147 0 263.5 -56t197.5 -156.5t123 -235.5t42 -295t-42 -296t-124 -236q-80 -98 -196.5 -155.5t-263.5 -57.5t-264 57t-198 156.5t-123 235.5t-42 296zM252 725q0 -129 31.5 -243.5t94 -200.5t156 -136.5 t216.5 -50.5t215 49q94 51 156.5 137.5t94 201t31.5 243.5t-31.5 243.5t-94 200.5t-156 135.5t-215.5 49.5q-123 0 -216.5 -49.5t-156 -135.5t-94 -200.5t-31.5 -243.5zM402 1686q92 53 171 101t150 95h54q72 -47 150.5 -95t170.5 -101l-35 -78q-96 45 -167.5 80.5 t-145.5 76.5q-74 -41 -145.5 -76.5t-167.5 -80.5z" />
<glyph unicode="&#xd5;" horiz-adv-x="1499" d="M123 725q0 160 42 295t123 235.5t197.5 156.5t264.5 56q147 0 263.5 -56t197.5 -156.5t123 -235.5t42 -295t-42 -296t-124 -236q-80 -98 -196.5 -155.5t-263.5 -57.5t-264 57t-198 156.5t-123 235.5t-42 296zM252 725q0 -129 31.5 -243.5t94 -200.5t156 -136.5 t216.5 -50.5t215 49q94 51 156.5 137.5t94 201t31.5 243.5t-31.5 243.5t-94 200.5t-156 135.5t-215.5 49.5q-123 0 -216.5 -49.5t-156 -135.5t-94 -200.5t-31.5 -243.5zM418 1651q0 80 51.5 127t135.5 47q43 0 77.5 -14.5t75.5 -47.5q45 -37 74 -55t63 -18q41 0 62.5 23.5 t21.5 64.5q0 23 -4 39l97 10q4 -14 6 -28.5t2 -33.5q0 -80 -51.5 -127t-135.5 -47q-43 0 -77.5 14.5t-75.5 47.5q-45 37 -74 55t-63 18q-41 0 -62.5 -23.5t-21.5 -64.5q0 -23 4 -39l-97 -10q-4 12 -6 27.5t-2 34.5z" />
<glyph unicode="&#xd6;" horiz-adv-x="1499" d="M123 725q0 160 42 295t123 235.5t197.5 156.5t264.5 56q147 0 263.5 -56t197.5 -156.5t123 -235.5t42 -295t-42 -296t-124 -236q-80 -98 -196.5 -155.5t-263.5 -57.5t-264 57t-198 156.5t-123 235.5t-42 296zM252 725q0 -129 31.5 -243.5t94 -200.5t156 -136.5 t216.5 -50.5t215 49q94 51 156.5 137.5t94 201t31.5 243.5t-31.5 243.5t-94 200.5t-156 135.5t-215.5 49.5q-123 0 -216.5 -49.5t-156 -135.5t-94 -200.5t-31.5 -243.5zM453 1714q0 39 23.5 61.5t62.5 22.5t61.5 -22.5t22.5 -61.5q0 -41 -22.5 -63.5t-61.5 -22.5t-62.5 22.5 t-23.5 63.5zM877 1714q0 39 22.5 61.5t61.5 22.5t62.5 -22.5t23.5 -61.5q0 -41 -23.5 -63.5t-62.5 -22.5t-61.5 22.5t-22.5 63.5z" />
<glyph unicode="&#xd7;" d="M201 406l297 294l-297 295l75 74l297 -295l297 295l76 -74l-297 -295l297 -294l-76 -74l-297 295l-297 -295z" />
<glyph unicode="&#xd8;" horiz-adv-x="1499" d="M63 51l183 201q-61 96 -92 216t-31 257q0 160 42 295t123 235.5t197.5 156.5t264.5 56q137 0 246.5 -49t189.5 -135l170 184l80 -71l-183 -201q123 -195 123 -471q0 -160 -42 -296t-123 -235.5t-197.5 -156.5t-263.5 -57q-139 0 -249 49t-190 135l-168 -184zM252 725 q0 -106 20.5 -201.5t61.5 -175.5l768 844q-61 76 -149.5 119t-202.5 43q-123 0 -216.5 -49.5t-156 -135.5t-94 -200.5t-31.5 -243.5zM395 256q63 -76 150.5 -119t204.5 -43q123 0 216 50.5t155.5 136.5t94 200.5t31.5 243.5q0 104 -21.5 200.5t-62.5 174.5z" />
<glyph unicode="&#xd9;" horiz-adv-x="1445" d="M197 545v903h127v-895q0 -215 96 -337t303 -122t303 121t96 338v895h127v-903q0 -129 -34.5 -233.5t-101 -178.5t-165 -113.5t-225.5 -39.5t-225.5 39.5t-165 113.5t-101 178.5t-34.5 233.5zM446 1751l45 115q100 -47 215 -92t228 -86l-29 -86q-51 12 -111.5 29.5 t-122 38t-120 41t-105.5 40.5z" />
<glyph unicode="&#xda;" horiz-adv-x="1445" d="M197 545v903h127v-895q0 -215 96 -337t303 -122t303 121t96 338v895h127v-903q0 -129 -34.5 -233.5t-101 -178.5t-165 -113.5t-225.5 -39.5t-225.5 39.5t-165 113.5t-101 178.5t-34.5 233.5zM493 1688q113 41 227.5 86t215.5 92l45 -115q-47 -20 -105.5 -40.5t-120 -41 t-122 -38t-111.5 -29.5z" />
<glyph unicode="&#xdb;" horiz-adv-x="1445" d="M197 545v903h127v-895q0 -215 96 -337t303 -122t303 121t96 338v895h127v-903q0 -129 -34.5 -233.5t-101 -178.5t-165 -113.5t-225.5 -39.5t-225.5 39.5t-165 113.5t-101 178.5t-34.5 233.5zM375 1686q92 53 171 101t150 95h54q72 -47 150.5 -95t170.5 -101l-35 -78 q-96 45 -167.5 80.5t-145.5 76.5q-74 -41 -145.5 -76.5t-167.5 -80.5z" />
<glyph unicode="&#xdc;" horiz-adv-x="1445" d="M197 545v903h127v-895q0 -215 96 -337t303 -122t303 121t96 338v895h127v-903q0 -129 -34.5 -233.5t-101 -178.5t-165 -113.5t-225.5 -39.5t-225.5 39.5t-165 113.5t-101 178.5t-34.5 233.5zM426 1714q0 39 23.5 61.5t62.5 22.5t61.5 -22.5t22.5 -61.5q0 -41 -22.5 -63.5 t-61.5 -22.5t-62.5 22.5t-23.5 63.5zM850 1714q0 39 22.5 61.5t61.5 22.5t62.5 -22.5t23.5 -61.5q0 -41 -23.5 -63.5t-62.5 -22.5t-61.5 22.5t-22.5 63.5z" />
<glyph unicode="&#xdd;" horiz-adv-x="1206" d="M25 1448h141l438 -797l440 797h138l-516 -918v-530h-125v530zM407 1688q113 41 227.5 86t215.5 92l45 -115q-47 -20 -105.5 -40.5t-120 -41t-122 -38t-111.5 -29.5z" />
<glyph unicode="&#xde;" horiz-adv-x="1204" d="M203 0v1448h127v-289h360q98 0 179 -30.5t139.5 -86t91.5 -134.5t33 -177t-33 -177t-91.5 -134t-139.5 -86t-179 -31h-360v-303h-127zM330 416h350q145 0 234.5 86t89.5 229t-89.5 229.5t-234.5 86.5h-350v-631z" />
<glyph unicode="&#xdf;" horiz-adv-x="1159" d="M180 0v1147q0 102 29 178t78 126t117.5 74.5t148.5 24.5q84 0 153.5 -24.5t120 -69.5t78 -105.5t27.5 -129.5q0 -53 -14.5 -97.5t-38 -84.5t-52 -76.5t-59.5 -75.5q-29 -37 -50.5 -69t-21.5 -66q0 -49 41 -84t99 -70q41 -25 85 -54.5t79.5 -67.5t59 -89t23.5 -121 q0 -72 -25.5 -125t-69.5 -89t-105.5 -54t-130.5 -18q-66 0 -137.5 15t-137.5 50l39 96q66 -29 124 -42t110 -13q100 0 156.5 45t56.5 129q0 78 -46.5 132t-134.5 108q-43 27 -80.5 51t-65.5 52t-44.5 60.5t-16.5 75.5q0 57 31 107.5t78 109.5q29 35 52.5 66t40 59.5 t25.5 60.5t9 68q0 109 -69.5 171.5t-186.5 62.5q-72 0 -121 -24.5t-78.5 -66.5t-43 -97.5t-13.5 -118.5v-1137h-119z" />
<glyph unicode="&#xe0;" horiz-adv-x="1036" d="M86 291q0 90 37 152.5t97.5 101.5t139 56t164.5 17q74 0 129.5 -7t108.5 -17v68q0 139 -69.5 223t-217.5 84q-76 0 -151.5 -23.5t-143.5 -62.5l-41 94q70 43 159 69.5t187 26.5q102 0 176 -30.5t122 -84t72 -126t24 -156.5v-426q0 -59 3 -125t19 -125h-119 q-8 31 -12 67.5t-6 69.5q-31 -27 -73 -54.5t-90 -49t-101.5 -34.5t-106.5 -13q-66 0 -122 21.5t-97 60t-64.5 95t-23.5 128.5zM205 291q0 -84 52 -141.5t157 -57.5q45 0 93 11.5t93 31t86 45t76 51.5v273q-53 10 -112.5 14t-106.5 4q-162 0 -250 -60.5t-88 -170.5zM256 1561 l92 81q72 -86 161 -181t173 -177l-66 -63q-41 33 -88 74.5t-96 86.5t-95 91.5t-81 87.5z" />
<glyph unicode="&#xe1;" horiz-adv-x="1036" d="M86 291q0 90 37 152.5t97.5 101.5t139 56t164.5 17q74 0 129.5 -7t108.5 -17v68q0 139 -69.5 223t-217.5 84q-76 0 -151.5 -23.5t-143.5 -62.5l-41 94q70 43 159 69.5t187 26.5q102 0 176 -30.5t122 -84t72 -126t24 -156.5v-426q0 -59 3 -125t19 -125h-119 q-8 31 -12 67.5t-6 69.5q-31 -27 -73 -54.5t-90 -49t-101.5 -34.5t-106.5 -13q-66 0 -122 21.5t-97 60t-64.5 95t-23.5 128.5zM205 291q0 -84 52 -141.5t157 -57.5q45 0 93 11.5t93 31t86 45t76 51.5v273q-53 10 -112.5 14t-106.5 4q-162 0 -250 -60.5t-88 -170.5zM293 1284 q84 82 173 177t161 181l92 -81q-35 -41 -81 -87.5t-95 -91.5t-97.5 -87t-86.5 -74z" />
<glyph unicode="&#xe2;" horiz-adv-x="1036" d="M86 291q0 90 37 152.5t97.5 101.5t139 56t164.5 17q74 0 129.5 -7t108.5 -17v68q0 139 -69.5 223t-217.5 84q-76 0 -151.5 -23.5t-143.5 -62.5l-41 94q70 43 159 69.5t187 26.5q102 0 176 -30.5t122 -84t72 -126t24 -156.5v-426q0 -59 3 -125t19 -125h-119 q-8 31 -12 67.5t-6 69.5q-31 -27 -73 -54.5t-90 -49t-101.5 -34.5t-106.5 -13q-66 0 -122 21.5t-97 60t-64.5 95t-23.5 128.5zM139 1278q90 84 169 162t154 157h54q76 -80 154.5 -157.5t168.5 -161.5l-61 -61q-66 53 -141.5 119.5t-147.5 131.5q-72 -66 -147.5 -132 t-141.5 -119zM205 291q0 -84 52 -141.5t157 -57.5q45 0 93 11.5t93 31t86 45t76 51.5v273q-53 10 -112.5 14t-106.5 4q-162 0 -250 -60.5t-88 -170.5z" />
<glyph unicode="&#xe3;" horiz-adv-x="1036" d="M86 291q0 90 37 152.5t97.5 101.5t139 56t164.5 17q74 0 129.5 -7t108.5 -17v68q0 139 -69.5 223t-217.5 84q-76 0 -151.5 -23.5t-143.5 -62.5l-41 94q70 43 159 69.5t187 26.5q102 0 176 -30.5t122 -84t72 -126t24 -156.5v-426q0 -59 3 -125t19 -125h-119 q-8 31 -12 67.5t-6 69.5q-31 -27 -73 -54.5t-90 -49t-101.5 -34.5t-106.5 -13q-66 0 -122 21.5t-97 60t-64.5 95t-23.5 128.5zM157 1325q0 80 51.5 127t135.5 47q43 0 77.5 -14.5t75.5 -46.5q45 -37 74 -55.5t63 -18.5q41 0 62.5 23.5t21.5 64.5q0 23 -4 39l97 10 q4 -14 6 -28.5t2 -32.5q0 -80 -51.5 -127t-135.5 -47q-43 0 -77.5 14t-75.5 47q-45 37 -74 55.5t-63 18.5q-41 0 -62.5 -23.5t-21.5 -64.5q0 -23 4 -39l-97 -10q-4 12 -6 27.5t-2 33.5zM205 291q0 -84 52 -141.5t157 -57.5q45 0 93 11.5t93 31t86 45t76 51.5v273 q-53 10 -112.5 14t-106.5 4q-162 0 -250 -60.5t-88 -170.5z" />
<glyph unicode="&#xe4;" horiz-adv-x="1036" d="M86 291q0 90 37 152.5t97.5 101.5t139 56t164.5 17q74 0 129.5 -7t108.5 -17v68q0 139 -69.5 223t-217.5 84q-76 0 -151.5 -23.5t-143.5 -62.5l-41 94q70 43 159 69.5t187 26.5q102 0 176 -30.5t122 -84t72 -126t24 -156.5v-426q0 -59 3 -125t19 -125h-119 q-8 31 -12 67.5t-6 69.5q-31 -27 -73 -54.5t-90 -49t-101.5 -34.5t-106.5 -13q-66 0 -122 21.5t-97 60t-64.5 95t-23.5 128.5zM196 1382q0 39 22.5 61.5t61.5 22.5t61.5 -22.5t22.5 -61.5q1 -38 -22 -63q-23 -23 -62 -23t-61.5 23.5t-22.5 62.5zM205 291q0 -84 52 -141.5 t157 -57.5q45 0 93 11.5t93 31t86 45t76 51.5v273q-53 10 -112.5 14t-106.5 4q-162 0 -250 -60.5t-88 -170.5zM614 1382q0 39 22.5 61.5t61.5 22.5t61.5 -22.5t22.5 -61.5q0 -38 -23 -63q-23 -23 -61 -23q-39 0 -61.5 23.5t-22.5 62.5z" />
<glyph unicode="&#xe5;" horiz-adv-x="1036" d="M86 291q0 90 37 152.5t97.5 101.5t139 56t164.5 17q74 0 129.5 -7t108.5 -17v68q0 139 -69.5 223t-217.5 84q-76 0 -151.5 -23.5t-143.5 -62.5l-41 94q70 43 159 69.5t187 26.5q102 0 176 -30.5t122 -84t72 -126t24 -156.5v-426q0 -59 3 -125t19 -125h-119 q-8 31 -12 67.5t-6 69.5q-31 -27 -73 -54.5t-90 -49t-101.5 -34.5t-106.5 -13q-66 0 -122 21.5t-97 60t-64.5 95t-23.5 128.5zM205 291q0 -84 52 -141.5t157 -57.5q45 0 93 11.5t93 31t86 45t76 51.5v273q-53 10 -112.5 14t-106.5 4q-162 0 -250 -60.5t-88 -170.5zM258 1423 q0 94 61 155.5t170 61.5t170 -61.5t61 -155.5t-61 -155.5t-170 -61.5t-170 61.5t-61 155.5zM354 1423q0 -57 36 -93t99 -36t99 36t36 93t-36 93t-99 36t-99 -35.5t-36 -93.5z" />
<glyph unicode="&#xe6;" horiz-adv-x="1691" d="M86 291q0 82 32 143.5t90 102.5t138 61t178 20q53 0 107.5 -6t118.5 -16v66q0 68 -14.5 124t-47.5 97t-86 63.5t-129 22.5q-78 0 -150.5 -23.5t-142.5 -62.5l-41 94q70 43 157 69.5t183 26.5q147 0 228 -63.5t118 -161.5q51 102 140.5 163.5t218.5 61.5q98 0 175 -36 t129 -98t78.5 -149.5t26.5 -189.5q0 -29 -2 -57.5t-6 -50.5h-717q10 -190 100.5 -298t266.5 -108q78 0 151.5 22.5t145.5 63.5l41 -96q-76 -47 -161 -71.5t-181 -24.5q-135 0 -230.5 50t-154.5 142q-92 -88 -208 -137t-228 -49q-152 0 -238 84t-86 221zM205 291 q0 -86 54 -142.5t165 -56.5q99 0 197 43q100 45 182 115q-27 57 -39 121q-12 63 -16 135q-59 8 -111.5 12t-93.5 4q-154 0 -246 -57t-92 -174zM868 590h609q-2 84 -19.5 153.5t-54.5 118.5t-93.5 77t-133.5 28q-78 0 -134.5 -30t-93.5 -81t-56.5 -119.5t-23.5 -146.5z" />
<glyph unicode="&#xe7;" horiz-adv-x="983" d="M98 524q0 121 32 221.5t94.5 173t152.5 113.5t207 41q92 0 176 -24.5t153 -65.5l-41 -96q-72 39 -143.5 59.5t-142.5 20.5q-90 0 -158 -32t-115 -90.5t-70.5 -139t-23.5 -179.5q0 -96 22.5 -177t68.5 -139t116 -91t162 -33q76 0 150.5 22.5t148.5 63.5l41 -96 q-70 -43 -152 -67.5t-174 -28.5l-12 -107q92 -4 146.5 -51t54.5 -125q0 -84 -60.5 -132t-159.5 -48q-39 0 -72.5 7t-62.5 17l23 82q18 -4 44.5 -9t53.5 -5q55 0 92 23.5t37 68.5q0 43 -38 69.5t-105 26.5q-29 0 -62 -6l23 195q-98 12 -174 57t-127 115.5t-78 164t-27 201.5z " />
<glyph unicode="&#xe8;" horiz-adv-x="1058" d="M98 532q0 111 27 209.5t81 172t137 116.5t196 43q100 0 179 -36t133 -98t82 -149.5t28 -189.5q0 -29 -2.5 -57.5t-6.5 -50.5h-733q10 -190 108.5 -298t274.5 -108q78 0 151.5 22.5t145.5 63.5l41 -96q-76 -47 -161 -71.5t-181 -24.5q-119 0 -212 39.5t-156.5 111.5 t-97.5 174.5t-34 226.5zM217 590h627q-2 174 -78 275.5t-225 101.5q-80 0 -138.5 -30t-98.5 -81t-60.5 -119.5t-26.5 -146.5zM299 1561l92 81q72 -86 161 -181t173 -177l-66 -63q-41 33 -88 74.5t-96 86.5t-95 91.5t-81 87.5z" />
<glyph unicode="&#xe9;" horiz-adv-x="1058" d="M98 532q0 111 27 209.5t81 172t137 116.5t196 43q100 0 179 -36t133 -98t82 -149.5t28 -189.5q0 -29 -2.5 -57.5t-6.5 -50.5h-733q10 -190 108.5 -298t274.5 -108q78 0 151.5 22.5t145.5 63.5l41 -96q-76 -47 -161 -71.5t-181 -24.5q-119 0 -212 39.5t-156.5 111.5 t-97.5 174.5t-34 226.5zM217 590h627q-2 174 -78 275.5t-225 101.5q-80 0 -138.5 -30t-98.5 -81t-60.5 -119.5t-26.5 -146.5zM375 1284q84 82 173 177t161 181l92 -81q-35 -41 -81 -87.5t-95 -91.5t-97.5 -87t-86.5 -74z" />
<glyph unicode="&#xea;" horiz-adv-x="1058" d="M98 532q0 111 27 209.5t81 172t137 116.5t196 43q100 0 179 -36t133 -98t82 -149.5t28 -189.5q0 -29 -2.5 -57.5t-6.5 -50.5h-733q10 -190 108.5 -298t274.5 -108q78 0 151.5 22.5t145.5 63.5l41 -96q-76 -47 -161 -71.5t-181 -24.5q-119 0 -212 39.5t-156.5 111.5 t-97.5 174.5t-34 226.5zM187 1278q90 84 169 162t154 157h54q76 -80 154.5 -157.5t168.5 -161.5l-61 -61q-66 53 -141.5 119.5t-147.5 131.5q-72 -66 -147.5 -132t-141.5 -119zM217 590h627q-2 174 -78 275.5t-225 101.5q-80 0 -138.5 -30t-98.5 -81t-60.5 -119.5 t-26.5 -146.5z" />
<glyph unicode="&#xeb;" horiz-adv-x="1058" d="M98 532q0 111 27 209.5t81 172t137 116.5t196 43q100 0 179 -36t133 -98t82 -149.5t28 -189.5q0 -29 -2.5 -57.5t-6.5 -50.5h-733q10 -190 108.5 -298t274.5 -108q78 0 151.5 22.5t145.5 63.5l41 -96q-76 -47 -161 -71.5t-181 -24.5q-119 0 -212 39.5t-156.5 111.5 t-97.5 174.5t-34 226.5zM217 590h627q-2 174 -78 275.5t-225 101.5q-80 0 -138.5 -30t-98.5 -81t-60.5 -119.5t-26.5 -146.5zM244 1382q0 39 22.5 61.5t61.5 22.5t61.5 -22.5t22.5 -61.5q1 -38 -22 -63q-23 -23 -62 -23t-61.5 23.5t-22.5 62.5zM662 1382q0 39 22.5 61.5 t61.5 22.5t61.5 -22.5t22.5 -61.5q0 -38 -23 -63q-23 -23 -61 -23q-39 0 -61.5 23.5t-22.5 62.5z" />
<glyph unicode="&#xec;" horiz-adv-x="479" d="M35 1561l92 81q72 -86 161 -181t173 -177l-66 -63q-41 33 -88 74.5t-96 86.5t-95 91.5t-81 87.5zM180 0v1049l119 10v-1059h-119z" />
<glyph unicode="&#xed;" horiz-adv-x="479" d="M16 1284q84 82 173 177t161 181l92 -81q-35 -41 -81 -87.5t-95 -91.5t-97.5 -87t-86.5 -74zM180 0v1049l119 10v-1059h-119z" />
<glyph unicode="&#xee;" horiz-adv-x="479" d="M-110 1278q90 84 169 162t154 157h54q76 -80 154.5 -157.5t168.5 -161.5l-61 -61q-66 53 -141.5 119.5t-147.5 131.5q-72 -66 -147.5 -132t-141.5 -119zM180 0v1049l119 10v-1059h-119z" />
<glyph unicode="&#xef;" horiz-adv-x="479" d="M-2 1382q0 39 22.5 61.5t61.5 22.5t61.5 -22.5t22.5 -61.5q1 -38 -22 -63q-23 -23 -62 -23t-61.5 23.5t-22.5 62.5zM180 0v1049l119 10v-1059h-119zM314 1382q0 39 22.5 61.5t61.5 22.5t61.5 -22.5t22.5 -61.5q0 -38 -23 -63q-23 -23 -61 -23q-39 0 -61.5 23.5 t-22.5 62.5z" />
<glyph unicode="&#xf0;" horiz-adv-x="1136" d="M98 502q0 115 34 210t94.5 163.5t145.5 106.5t189 38q78 0 144.5 -22.5t125.5 -57.5q-47 98 -111.5 186t-146.5 158l-194 -172l-66 74l181 160q-43 33 -91.5 61.5t-99.5 54.5l53 88q57 -29 112.5 -62.5t106.5 -72.5l187 166l65 -74l-174 -153q176 -158 280.5 -365 t104.5 -442q0 -129 -32.5 -234.5t-93 -179.5t-147.5 -113.5t-196 -39.5q-111 0 -197.5 38.5t-147 108.5t-93.5 165t-33 210zM219 504q0 -90 22.5 -167t67.5 -132t109.5 -87t148.5 -32q170 0 260.5 126t90.5 341q-1 70 -11 133q-10 66 -28 125q-74 49 -148 75.5t-153 26.5 q-84 0 -151 -29.5t-113 -82.5t-70.5 -129t-24.5 -168z" />
<glyph unicode="&#xf1;" horiz-adv-x="1163" d="M174 0v1049l105 10l12 -141q86 66 183 110.5t202 44.5q86 0 146.5 -31.5t100.5 -86t58 -129t18 -160.5v-416q0 -59 3.5 -125t19.5 -125h-119q-16 59 -19 124.5t-3 125.5v405q0 63 -11.5 119.5t-38 100t-70.5 68t-110 24.5q-90 0 -185 -44t-173 -108v-815h-119zM262 1325 q0 80 51.5 127t135.5 47q43 0 77.5 -14.5t75.5 -46.5q45 -37 74 -55.5t63 -18.5q41 0 62.5 23.5t21.5 64.5q0 23 -4 39l97 10q4 -14 6 -28.5t2 -32.5q0 -80 -51.5 -127t-135.5 -47q-43 0 -77.5 14t-75.5 47q-45 37 -74 55.5t-63 18.5q-41 0 -62.5 -23.5t-21.5 -64.5 q0 -23 4 -39l-97 -10q-4 12 -6 27.5t-2 33.5z" />
<glyph unicode="&#xf2;" horiz-adv-x="1159" d="M98 526q0 121 33 221.5t94.5 173t150.5 112.5t204 40t203.5 -40t150 -112.5t94.5 -173t33 -221.5t-33 -221t-94 -174q-61 -72 -150.5 -111.5t-203.5 -39.5q-115 0 -204 39.5t-150.5 112.5t-94.5 173.5t-33 220.5zM219 526q0 -96 23.5 -176t68.5 -139t113 -92t156 -33 q87 0 155 33t113 92t68.5 139t23.5 176q0 94 -23.5 175t-68.5 140.5t-112.5 92.5t-155.5 33t-156 -33t-113 -92.5t-68.5 -140t-23.5 -175.5zM369 1561l92 81q72 -86 161 -181t173 -177l-66 -63q-41 33 -88 74.5t-96 86.5t-95 91.5t-81 87.5z" />
<glyph unicode="&#xf3;" horiz-adv-x="1159" d="M98 526q0 121 33 221.5t94.5 173t150.5 112.5t204 40t203.5 -40t150 -112.5t94.5 -173t33 -221.5t-33 -221t-94 -174q-61 -72 -150.5 -111.5t-203.5 -39.5q-115 0 -204 39.5t-150.5 112.5t-94.5 173.5t-33 220.5zM219 526q0 -96 23.5 -176t68.5 -139t113 -92t156 -33 q87 0 155 33t113 92t68.5 139t23.5 176q0 94 -23.5 175t-68.5 140.5t-112.5 92.5t-155.5 33t-156 -33t-113 -92.5t-68.5 -140t-23.5 -175.5zM369 1284q84 82 173 177t161 181l92 -81q-35 -41 -81 -87.5t-95 -91.5t-97.5 -87t-86.5 -74z" />
<glyph unicode="&#xf4;" horiz-adv-x="1159" d="M98 526q0 121 33 221.5t94.5 173t150.5 112.5t204 40t203.5 -40t150 -112.5t94.5 -173t33 -221.5t-33 -221t-94 -174q-61 -72 -150.5 -111.5t-203.5 -39.5q-115 0 -204 39.5t-150.5 112.5t-94.5 173.5t-33 220.5zM219 526q0 -96 23.5 -176t68.5 -139t113 -92t156 -33 q87 0 155 33t113 92t68.5 139t23.5 176q0 94 -23.5 175t-68.5 140.5t-112.5 92.5t-155.5 33t-156 -33t-113 -92.5t-68.5 -140t-23.5 -175.5zM232 1278q90 84 169 162t154 157h54q76 -80 154.5 -157.5t168.5 -161.5l-61 -61q-66 53 -141.5 119.5t-147.5 131.5 q-72 -66 -147.5 -132t-141.5 -119z" />
<glyph unicode="&#xf5;" horiz-adv-x="1159" d="M98 526q0 121 33 221.5t94.5 173t150.5 112.5t204 40t203.5 -40t150 -112.5t94.5 -173t33 -221.5t-33 -221t-94 -174q-61 -72 -150.5 -111.5t-203.5 -39.5q-115 0 -204 39.5t-150.5 112.5t-94.5 173.5t-33 220.5zM219 526q0 -96 23.5 -176t68.5 -139t113 -92t156 -33 q87 0 155 33t113 92t68.5 139t23.5 176q0 94 -23.5 175t-68.5 140.5t-112.5 92.5t-155.5 33t-156 -33t-113 -92.5t-68.5 -140t-23.5 -175.5zM250 1325q0 80 51.5 127t135.5 47q43 0 77.5 -14.5t75.5 -46.5q45 -37 74 -55.5t63 -18.5q41 0 62.5 23.5t21.5 64.5q0 23 -4 39 l97 10q4 -14 6 -28.5t2 -32.5q0 -80 -51.5 -127t-135.5 -47q-43 0 -77.5 14t-75.5 47q-45 37 -74 55.5t-63 18.5q-41 0 -62.5 -23.5t-21.5 -64.5q0 -23 4 -39l-97 -10q-4 12 -6 27.5t-2 33.5z" />
<glyph unicode="&#xf6;" horiz-adv-x="1159" d="M98 526q0 121 33 221.5t94.5 173t150.5 112.5t204 40t203.5 -40t150 -112.5t94.5 -173t33 -221.5t-33 -221t-94 -174q-61 -72 -150.5 -111.5t-203.5 -39.5q-115 0 -204 39.5t-150.5 112.5t-94.5 173.5t-33 220.5zM219 526q0 -96 23.5 -176t68.5 -139t113 -92t156 -33 q87 0 155 33t113 92t68.5 139t23.5 176q0 94 -23.5 175t-68.5 140.5t-112.5 92.5t-155.5 33t-156 -33t-113 -92.5t-68.5 -140t-23.5 -175.5zM289 1382q0 39 22.5 61.5t61.5 22.5t61.5 -22.5t22.5 -61.5q1 -38 -22 -63q-23 -23 -62 -23t-61.5 23.5t-22.5 62.5zM707 1382 q0 39 22.5 61.5t61.5 22.5t61.5 -22.5t22.5 -61.5q0 -38 -23 -63q-23 -23 -61 -23q-39 0 -61.5 23.5t-22.5 62.5z" />
<glyph unicode="&#xf7;" d="M164 647v107h831v-107h-831zM483 357q0 41 24.5 66.5t67.5 25.5t67.5 -25.5t24.5 -66.5q1 -41 -24 -68q-25 -25 -68 -24q-43 0 -67.5 25.5t-24.5 66.5zM483 1045q0 41 24.5 66.5t67.5 25.5t67.5 -25.5t24.5 -66.5q1 -41 -24 -68q-25 -25 -68 -24q-43 0 -67.5 25.5 t-24.5 66.5z" />
<glyph unicode="&#xf8;" horiz-adv-x="1161" d="M33 49l147 148q-39 66 -59.5 148.5t-20.5 180.5q0 121 33 221.5t94.5 173t150.5 112.5t204 40q109 0 194.5 -36t147.5 -101l137 137l67 -69l-147 -148q82 -135 82 -330q0 -121 -33 -221t-94.5 -173t-150.5 -112.5t-203 -39.5q-111 0 -196 35.5t-146 101.5l-140 -137z M221 526q0 -137 47 -243l572 569q-45 53 -109.5 84t-148.5 31q-88 0 -156 -33t-113 -92.5t-68.5 -140t-23.5 -175.5zM322 199q47 -53 110.5 -83t149.5 -30q88 0 155.5 33t112.5 92t68.5 139t23.5 176q0 139 -49 242z" />
<glyph unicode="&#xf9;" horiz-adv-x="1114" d="M141 387v662l119 10v-662q0 -63 11.5 -119.5t38 -99.5t70.5 -67.5t109 -24.5q82 0 169 38t163 93v832l119 10v-809q0 -59 3 -125t20 -125h-119q-6 23 -10.5 53.5t-8.5 63.5q-78 -57 -171 -97t-189 -40q-84 0 -144.5 31.5t-100.5 86t-59.5 129t-19.5 160.5zM203 1561 l92 81q72 -86 161 -181t173 -177l-66 -63q-41 33 -88 74.5t-96 86.5t-95 91.5t-81 87.5z" />
<glyph unicode="&#xfa;" horiz-adv-x="1114" d="M141 387v662l119 10v-662q0 -63 11.5 -119.5t38 -99.5t70.5 -67.5t109 -24.5q82 0 169 38t163 93v832l119 10v-809q0 -59 3 -125t20 -125h-119q-6 23 -10.5 53.5t-8.5 63.5q-78 -57 -171 -97t-189 -40q-84 0 -144.5 31.5t-100.5 86t-59.5 129t-19.5 160.5zM457 1284 q84 82 173 177t161 181l92 -81q-35 -41 -81 -87.5t-95 -91.5t-97.5 -87t-86.5 -74z" />
<glyph unicode="&#xfb;" horiz-adv-x="1114" d="M141 387v662l119 10v-662q0 -63 11.5 -119.5t38 -99.5t70.5 -67.5t109 -24.5q82 0 169 38t163 93v832l119 10v-809q0 -59 3 -125t20 -125h-119q-6 23 -10.5 53.5t-8.5 63.5q-78 -57 -171 -97t-189 -40q-84 0 -144.5 31.5t-100.5 86t-59.5 129t-19.5 160.5zM193 1278 q90 84 169 162t154 157h54q76 -80 154.5 -157.5t168.5 -161.5l-61 -61q-66 53 -141.5 119.5t-147.5 131.5q-72 -66 -147.5 -132t-141.5 -119z" />
<glyph unicode="&#xfc;" horiz-adv-x="1114" d="M141 387v662l119 10v-662q0 -63 11.5 -119.5t38 -99.5t70.5 -67.5t109 -24.5q82 0 169 38t163 93v832l119 10v-809q0 -59 3 -125t20 -125h-119q-6 23 -10.5 53.5t-8.5 63.5q-78 -57 -171 -97t-189 -40q-84 0 -144.5 31.5t-100.5 86t-59.5 129t-19.5 160.5zM250 1382 q0 39 22.5 61.5t61.5 22.5t61.5 -22.5t22.5 -61.5q1 -38 -22 -63q-23 -23 -62 -23t-61.5 23.5t-22.5 62.5zM668 1382q0 39 22.5 61.5t61.5 22.5t61.5 -22.5t22.5 -61.5q0 -38 -23 -63q-23 -23 -61 -23q-39 0 -61.5 23.5t-22.5 62.5z" />
<glyph unicode="&#xfd;" horiz-adv-x="958" d="M18 1053h129l334 -926l338 926h121l-356 -961q-72 -188 -163 -333.5t-196 -256.5l-82 78q86 92 156 193.5t123 212.5zM354 1284q84 82 173 177t161 181l92 -81q-35 -41 -81 -87.5t-95 -91.5t-97.5 -87t-86.5 -74z" />
<glyph unicode="&#xfe;" horiz-adv-x="1175" d="M180 -475v2005l119 12v-618q78 66 169 107.5t194 41.5q100 0 176.5 -43t130 -115.5t81 -169t27.5 -202.5q0 -115 -30.5 -217.5t-90 -179t-144.5 -121.5t-196 -45q-94 0 -175 30.5t-142 77.5v-563h-119zM299 199q63 -47 142 -80t163 -33q88 0 154.5 38t110.5 101.5 t65.5 146.5t21.5 173q0 86 -20.5 161.5t-60 134t-98 92.5t-136.5 34q-92 0 -181 -42t-161 -102v-624z" />
<glyph unicode="&#xff;" horiz-adv-x="958" d="M18 1053h129l334 -926l338 926h121l-356 -961q-72 -188 -163 -333.5t-196 -256.5l-82 78q86 92 156 193.5t123 212.5zM186 1382q0 39 22.5 61.5t61.5 22.5t61.5 -22.5t22.5 -61.5q1 -38 -22 -63q-23 -23 -62 -23t-61.5 23.5t-22.5 62.5zM604 1382q0 39 22.5 61.5 t61.5 22.5t61.5 -22.5t22.5 -61.5q0 -38 -23 -63q-23 -23 -61 -23q-39 0 -61.5 23.5t-22.5 62.5z" />
<glyph unicode="&#x152;" horiz-adv-x="2072" d="M123 723q0 160 47 293t133 229t208 149.5t273 53.5h1188v-113h-739v-553h608v-112h-608v-557h739v-113h-1188q-152 0 -273.5 53t-207.5 148.5t-133 228.5t-47 293zM252 723q0 -133 37 -244.5t107.5 -193.5t171 -127t229.5 -45h309v1222h-309q-129 0 -229.5 -46t-171 -127 t-107.5 -193.5t-37 -245.5z" />
<glyph unicode="&#x153;" horiz-adv-x="1890" d="M98 526q0 121 33 221.5t94.5 173t150.5 112.5t204 40q154 0 253 -71.5t152 -188.5q47 117 143.5 188.5t243.5 71.5q100 0 178 -36t132.5 -98t82 -149.5t27.5 -189.5q0 -29 -2 -57.5t-6 -50.5h-733q10 -190 108 -298t275 -108q78 0 151.5 22.5t145.5 63.5l41 -96 q-76 -47 -161 -71.5t-181 -24.5q-160 0 -273 70.5t-168 197.5q-53 -129 -155.5 -198.5t-253.5 -69.5q-115 0 -204 39.5t-150.5 112.5t-94.5 173.5t-33 220.5zM219 526q0 -96 23.5 -176t68.5 -139t113 -92t156 -33q87 0 153 33t111 92t67.5 139t22.5 176q0 94 -22.5 175 t-67.5 140.5t-110.5 92.5t-153.5 33t-156 -33t-113 -92.5t-68.5 -140t-23.5 -175.5zM1049 590h626q-2 174 -77.5 275.5t-225.5 101.5q-80 0 -138 -30t-97 -81t-60.5 -119.5t-27.5 -146.5z" />
<glyph unicode="&#x178;" horiz-adv-x="1206" d="M25 1448h141l438 -797l440 797h138l-516 -918v-530h-125v530zM305 1714q0 39 23.5 61.5t62.5 22.5t61.5 -22.5t22.5 -61.5q0 -41 -22.5 -63.5t-61.5 -22.5t-62.5 22.5t-23.5 63.5zM729 1714q0 39 22.5 61.5t61.5 22.5t62.5 -22.5t23.5 -61.5q0 -41 -23.5 -63.5 t-62.5 -22.5t-61.5 22.5t-22.5 63.5z" />
<glyph unicode="&#x2c6;" horiz-adv-x="1024" d="M162 1278q90 84 169 162t154 157h54q76 -80 154.5 -157.5t168.5 -161.5l-61 -61q-66 53 -141.5 119.5t-147.5 131.5q-72 -66 -147.5 -132t-141.5 -119z" />
<glyph unicode="&#x2dc;" horiz-adv-x="1024" d="M182 1325q0 80 51.5 127t135.5 47q43 0 77.5 -14.5t75.5 -46.5q45 -37 74 -55.5t63 -18.5q41 0 62.5 23.5t21.5 64.5q0 23 -4 39l97 10q4 -14 6 -28.5t2 -32.5q0 -80 -51.5 -127t-135.5 -47q-43 0 -77.5 14t-75.5 47q-45 37 -74 55.5t-63 18.5q-41 0 -62.5 -23.5 t-21.5 -64.5q0 -23 4 -39l-97 -10q-4 12 -6 27.5t-2 33.5z" />
<glyph unicode="&#x2000;" horiz-adv-x="941" />
<glyph unicode="&#x2001;" horiz-adv-x="1882" />
<glyph unicode="&#x2002;" horiz-adv-x="941" />
<glyph unicode="&#x2003;" horiz-adv-x="1882" />
<glyph unicode="&#x2004;" horiz-adv-x="627" />
<glyph unicode="&#x2005;" horiz-adv-x="470" />
<glyph unicode="&#x2006;" horiz-adv-x="313" />
<glyph unicode="&#x2007;" horiz-adv-x="313" />
<glyph unicode="&#x2008;" horiz-adv-x="235" />
<glyph unicode="&#x2009;" horiz-adv-x="376" />
<glyph unicode="&#x200a;" horiz-adv-x="104" />
<glyph unicode="&#x2010;" horiz-adv-x="845" d="M113 473v107h620v-107h-620z" />
<glyph unicode="&#x2011;" horiz-adv-x="845" d="M113 473v107h620v-107h-620z" />
<glyph unicode="&#x2012;" horiz-adv-x="845" d="M113 473v107h620v-107h-620z" />
<glyph unicode="&#x2013;" horiz-adv-x="1024" d="M0 473v107h1024v-107h-1024z" />
<glyph unicode="&#x2014;" horiz-adv-x="2048" d="M0 473v107h2048v-107h-2048z" />
<glyph unicode="&#x2018;" horiz-adv-x="409" d="M113 1237q0 158 106 326l78 -43q-33 -72 -49.5 -131.5t-16.5 -124.5q0 -100 41 -189l-125 -28q-35 94 -34 190z" />
<glyph unicode="&#x2019;" horiz-adv-x="409" d="M113 1090q33 72 49 131t16 125q0 100 -41 188l125 29q35 -94 35 -191q0 -158 -107 -325z" />
<glyph unicode="&#x201a;" horiz-adv-x="409" d="M113 -168q33 72 49 131.5t16 124.5q0 47 -9 94t-32 94l125 29q35 -94 35 -190q0 -158 -107 -326z" />
<glyph unicode="&#x201c;" horiz-adv-x="708" d="M113 1237q0 158 106 326l78 -43q-33 -72 -49.5 -131.5t-16.5 -124.5q0 -100 41 -189l-125 -28q-35 94 -34 190zM412 1237q0 158 106 326l78 -43q-33 -72 -49.5 -131.5t-16.5 -124.5q0 -100 41 -189l-125 -28q-35 94 -34 190z" />
<glyph unicode="&#x201d;" horiz-adv-x="708" d="M113 1090q33 72 49 131t16 125q0 100 -41 188l125 29q35 -94 35 -191q0 -158 -107 -325zM412 1090q33 72 49 131t16 125q0 100 -41 188l125 29q35 -94 35 -191q0 -158 -107 -325z" />
<glyph unicode="&#x201e;" horiz-adv-x="708" d="M113 -168q33 72 49 131.5t16 124.5q0 47 -9 94t-32 94l125 29q35 -94 35 -190q0 -158 -107 -326zM412 -168q33 72 49 131.5t16 124.5q0 47 -9 94t-32 94l125 29q35 -94 35 -190q0 -158 -107 -326z" />
<glyph unicode="&#x2022;" horiz-adv-x="729" d="M143 528q0 94 56.5 154.5t165.5 60.5t165 -60t56 -155q-1 -94 -58 -155q-55 -59 -163 -60q-109 0 -165.5 60.5t-56.5 154.5z" />
<glyph unicode="&#x2026;" horiz-adv-x="1470" d="M135 72q0 41 24.5 66.5t67.5 25.5t67.5 -25.5t24.5 -66.5q1 -41 -24 -68q-25 -25 -68 -24q-43 0 -67.5 25.5t-24.5 66.5zM643 72q0 41 24.5 66.5t67.5 25.5t67.5 -25.5t24.5 -66.5q1 -41 -24 -68q-25 -25 -68 -24q-43 0 -67.5 25.5t-24.5 66.5zM1151 72q0 41 24.5 66.5 t67.5 25.5t67.5 -25.5t24.5 -66.5q1 -41 -24 -68q-25 -25 -68 -24q-43 0 -67.5 25.5t-24.5 66.5z" />
<glyph unicode="&#x202f;" horiz-adv-x="376" />
<glyph unicode="&#x2039;" horiz-adv-x="665" d="M111 502v49l309 399h135l-322 -424l322 -424h-135z" />
<glyph unicode="&#x203a;" horiz-adv-x="665" d="M111 102l323 424l-323 424h137l307 -399v-49l-307 -400h-137z" />
<glyph unicode="&#x205f;" horiz-adv-x="470" />
<glyph unicode="&#x20ac;" d="M63 498v100h177q-4 31 -4 54.5v47.5q0 23 1 49.5t3 55.5h-177v100h187q35 248 157.5 382t342.5 134q96 0 176 -23.5t172 -64.5l-39 -102q-94 41 -172 59.5t-144 18.5q-154 0 -248 -102.5t-122 -301.5h444l-8 -100h-447q-6 -59 -6 -105q0 -41 6 -102h422l-8 -100h-403 q29 -199 124 -302.5t253 -103.5q63 0 138 18.5t171 59.5l39 -102q-90 -41 -169 -64.5t-177 -23.5q-221 0 -344 135t-158 383h-187z" />
<glyph unicode="&#x2122;" horiz-adv-x="1667" d="M78 1350v98h608v-98h-248v-709h-110v709h-250zM821 641v807h117l268 -416l267 416h116v-807h-106v639l-236 -360h-86l-233 360v-639h-107z" />
<glyph unicode="&#x25fc;" horiz-adv-x="1054" d="M0 0v1055h1055v-1055h-1055z" />
</font>
</defs>
</svg>
